<svg viewBox="0 0 178 74" fill="none" xmlns="http://www.w3.org/2000/svg"><g opacity=".5" clip-path="url(#a)"><path fill-rule="evenodd" clip-rule="evenodd" d="M8 22.25a.75.75 0 0 1 .75.75v2a.75.75 0 0 1-1.5 0v-2a.75.75 0 0 1 .75-.75ZM-2.75 33a.75.75 0 0 1 .75-.75h2a.75.75 0 0 1 0 1.5h-2a.75.75 0 0 1-.75-.75ZM.37 25.37a.75.75 0 0 1 1.06 0l1.1 1.1a.75.75 0 1 1-1.06 1.06l-1.1-1.1a.75.75 0 0 1 0-1.06ZM15.63 25.37a.75.75 0 0 1 0 1.06l-1.1 1.1a.75.75 0 1 1-1.06-1.06l1.1-1.1a.75.75 0 0 1 1.06 0ZM15.25 32.9a.75.75 0 0 1 .75-.75h2a.75.75 0 0 1 0 1.5h-2a.75.75 0 0 1-.75-.75ZM2.29 38.083c-.903-.41-2.077-.41-2.98 0a.75.75 0 0 1-.62-1.366c1.297-.59 2.923-.59 4.22 0 .903.41 2.077.41 2.98 0 1.297-.59 2.923-.59 4.22 0 .903.41 2.077.41 2.98 0 1.297-.59 2.923-.59 4.22 0a.75.75 0 0 1-.62 1.366c-.903-.41-2.077-.41-2.98 0-1.297.59-2.923.59-4.22 0-.903-.41-2.077-.41-2.98 0-1.297.59-2.923.59-4.22 0ZM9.49 41.283c-.903-.41-2.077-.41-2.98 0-1.297.59-2.923.59-4.22 0a.75.75 0 0 1 .62-1.366c.903.41 2.077.41 2.98 0 1.297-.59 2.923-.59 4.22 0 .903.41 2.077.41 2.98 0a.75.75 0 0 1 .62 1.366c-1.297.59-2.923.59-4.22 0ZM8 28.75c-2.386 0-4.25 1.864-4.25 4.25a.75.75 0 0 1-1.5 0c0-3.214 2.536-5.75 5.75-5.75s5.75 2.536 5.75 5.75a.75.75 0 0 1-1.5 0c0-2.386-1.864-4.25-4.25-4.25ZM175.25 33a.75.75 0 0 1 .75-.75h2a.75.75 0 0 1 0 1.5h-2a.75.75 0 0 1-.75-.75ZM180.29 38.083c-.903-.41-2.077-.41-2.98 0a.75.75 0 1 1-.62-1.366c1.297-.59 2.923-.59 4.22 0 .903.41 2.077.41 2.98 0 1.297-.59 2.923-.59 4.22 0 .903.41 2.077.41 2.98 0 1.297-.59 2.923-.59 4.22 0a.75.75 0 0 1-.62 1.366c-.903-.41-2.077-.41-2.98 0-1.297.59-2.923.59-4.22 0-.903-.41-2.077-.41-2.98 0-1.297.59-2.923.59-4.22 0ZM6.966-2.128a.669.669 0 0 1 .473.82L6.055 3.856a.669.669 0 0 1-1.292-.346l1.384-5.166a.669.669 0 0 1 .82-.473Z" fill="#fff"/><path fill-rule="evenodd" clip-rule="evenodd" d="M6.433-5.183C5.8-4.463 5.216-3.346 4.856-2a.669.669 0 1 1-1.292-.346c.401-1.496 1.068-2.812 1.864-3.718.77-.876 1.815-1.526 2.923-1.229 1.107.297 1.687 1.382 1.916 2.526.236 1.182.156 2.655-.245 4.151a.669.669 0 0 1-1.291-.346c.36-1.345.412-2.605.225-3.543-.196-.978-.595-1.4-.952-1.496-.356-.096-.914.07-1.571.82ZM.882 4.59c.302.213.375.63.162.932l-1.639 2.33a.669.669 0 1 1-1.093-.77l1.639-2.33a.669.669 0 0 1 .931-.162ZM8.015 6.501a.669.669 0 0 1 .726.606l.255 2.837a.669.669 0 0 1-1.332.12l-.255-2.837a.669.669 0 0 1 .606-.726Z" fill="#fff"/><path fill-rule="evenodd" clip-rule="evenodd" d="M13.994 4.76c-.05-1.448-1.538-2.204-2.736-1.723l-1.884.794a.67.67 0 0 0-.074.037c-.097.056-.333.078-.618.001L-.876 1.31c-1.045-.28-2.176.372-2.456 1.418-.28 1.045.372 2.176 1.418 2.456l9.558 2.56c1.11.298 2.203.157 3.2-.18a.667.667 0 0 0 .046-.018l1.873-.79.009-.004a2.072 2.072 0 0 0 1.222-1.99Zm-.668.03-.668.02c-.012-.403-.445-.712-.897-.534l-1.834.774c-.55.295-1.198.216-1.591.11L-1.222 2.6c-.332-.09-.73.14-.819.473-.089.332.14.73.473.818L7.99 6.452c.776.209 1.583.126 2.404-.148l1.844-.779a.735.735 0 0 0 .42-.694l.668-.04ZM2.76-6.923c1.672-.671 3.715-.873 5.59-.371 1.876.502 3.544 1.7 4.657 3.116 1.1 1.401 1.743 3.139 1.32 4.715a.668.668 0 0 1-.819.473L-.268-2.682A.669.669 0 0 1-.741-3.5C-.319-5.077 1.108-6.26 2.76-6.923ZM.813-3.777 13.12-.479c-.002-.882-.403-1.902-1.165-2.873-.952-1.212-2.381-2.23-3.95-2.65-1.57-.42-3.317-.254-4.747.32-1.145.46-2.003 1.142-2.445 1.905ZM178.882 4.59c.302.213.375.63.162.932l-1.639 2.33a.668.668 0 1 1-1.093-.77l1.639-2.33a.668.668 0 0 1 .931-.162Z" fill="#fff"/><path fill-rule="evenodd" clip-rule="evenodd" d="M191.994 4.76c-.05-1.448-1.538-2.204-2.736-1.723l-1.884.794a.713.713 0 0 0-.074.037c-.097.056-.333.078-.618.001l-9.558-2.56c-1.045-.28-2.176.372-2.456 1.418-.28 1.045.372 2.176 1.418 2.456l9.558 2.56c1.11.298 2.203.157 3.201-.18a.742.742 0 0 0 .045-.018l1.873-.79.009-.004a2.072 2.072 0 0 0 1.222-1.99Zm-.668.03-.668.02c-.012-.403-.445-.712-.897-.534l-1.834.774c-.55.295-1.198.216-1.591.11l-9.558-2.56c-.332-.09-.73.14-.819.473-.089.332.141.73.473.818l9.558 2.561c.776.209 1.583.126 2.404-.148l1.844-.779a.736.736 0 0 0 .421-.694l.667-.04ZM180.76-6.923c1.672-.671 3.715-.873 5.591-.371 1.875.502 3.543 1.7 4.656 3.116 1.099 1.401 1.743 3.139 1.32 4.715a.668.668 0 0 1-.818.473l-13.777-3.692a.669.669 0 0 1-.473-.819c.422-1.576 1.849-2.759 3.501-3.422Zm-1.947 3.146L191.12-.479c-.002-.882-.403-1.902-1.165-2.873-.952-1.212-2.381-2.23-3.951-2.65-1.569-.42-3.316-.254-4.746.32-1.145.46-2.003 1.142-2.445 1.905ZM191.994 78.76c-.05-1.448-1.538-2.204-2.736-1.723l-1.884.794a.71.71 0 0 0-.074.037c-.097.056-.333.078-.618.001l-9.558-2.56c-1.045-.28-2.176.372-2.456 1.418-.28 1.045.372 2.176 1.418 2.456l9.558 2.56c1.11.299 2.203.157 3.201-.18a.693.693 0 0 0 .045-.018l1.873-.79.009-.004a2.072 2.072 0 0 0 1.222-1.99Zm-.668.03-.668.02c-.012-.403-.445-.712-.897-.534l-1.834.774c-.55.295-1.198.216-1.591.11l-9.558-2.56c-.332-.09-.73.14-.819.473-.089.332.141.73.473.818l9.558 2.561c.776.209 1.583.126 2.404-.148l1.844-.779a.736.736 0 0 0 .421-.694l.667-.04ZM180.76 67.077c1.672-.671 3.715-.873 5.591-.371 1.875.502 3.543 1.7 4.656 3.116 1.099 1.401 1.743 3.139 1.32 4.715a.668.668 0 0 1-.818.473l-13.777-3.692a.669.669 0 0 1-.473-.819c.422-1.576 1.849-2.759 3.501-3.422Zm-1.947 3.147 12.307 3.297c-.002-.882-.403-1.902-1.165-2.873-.952-1.212-2.381-2.23-3.951-2.65-1.569-.42-3.316-.254-4.746.32-1.145.46-2.003 1.142-2.445 1.906ZM6.966 71.872a.668.668 0 0 1 .473.82l-1.384 5.165a.669.669 0 1 1-1.292-.346l1.384-5.166a.668.668 0 0 1 .82-.473Z" fill="#fff"/><path fill-rule="evenodd" clip-rule="evenodd" d="M6.433 68.817c-.632.72-1.217 1.837-1.577 3.182a.669.669 0 1 1-1.292-.346c.401-1.496 1.068-2.812 1.864-3.718.77-.876 1.815-1.526 2.923-1.229 1.107.297 1.687 1.382 1.916 2.525.236 1.183.156 2.656-.245 4.152a.669.669 0 1 1-1.291-.346c.36-1.345.412-2.605.225-3.543-.196-.978-.595-1.4-.952-1.496-.356-.096-.914.07-1.571.82ZM13.994 78.76c-.05-1.448-1.538-2.204-2.736-1.723l-1.884.794a.666.666 0 0 0-.074.037c-.097.056-.333.078-.618.001l-9.558-2.56c-1.045-.28-2.176.372-2.456 1.418-.28 1.045.372 2.176 1.418 2.456l9.558 2.56c1.11.299 2.203.157 3.2-.18a.629.629 0 0 0 .046-.018l1.873-.79.009-.004a2.072 2.072 0 0 0 1.222-1.99Zm-.668.03-.668.02c-.012-.403-.445-.712-.897-.534l-1.834.774c-.55.295-1.198.216-1.591.11l-9.558-2.56c-.332-.09-.73.14-.819.473-.089.332.14.73.473.818l9.558 2.561c.776.209 1.583.126 2.404-.148l1.844-.779a.735.735 0 0 0 .42-.694l.668-.04Z" fill="#fff"/><path fill-rule="evenodd" clip-rule="evenodd" d="M2.76 67.077c1.672-.671 3.715-.873 5.59-.371 1.876.502 3.544 1.7 4.657 3.116 1.1 1.401 1.743 3.139 1.32 4.715a.668.668 0 0 1-.819.473L-.268 71.318a.668.668 0 0 1-.473-.819c.422-1.576 1.849-2.759 3.501-3.422ZM.813 70.224 13.12 73.52c-.002-.882-.403-1.902-1.165-2.873-.952-1.212-2.381-2.23-3.95-2.65-1.57-.42-3.317-.254-4.747.32-1.145.46-2.003 1.142-2.445 1.906ZM48.587 5.413c-.634-.634-1.54-.634-2.174 0l-4.125 4.125a.937.937 0 0 1-.849.256L30.423 7.566c-.08.006-.171.023-.257.049a.71.71 0 0 0-.138.058l-.865.865a.245.245 0 0 0-.073.24.38.38 0 0 0 .176.243l8.444 3.228a.938.938 0 0 1 .328 1.539l-4.25 4.25a.937.937 0 0 1-.748.27l-2.7-.245a.543.543 0 0 0-.276.079l-.554.72 3.472 2.084c.132.08.243.19.322.322l2.007 3.345.526-.526c.032-.032.092-.134.1-.303l-.246-2.7a.938.938 0 0 1 .271-.747l4.25-4.25a.937.937 0 0 1 1.537.324l3.25 8.375.015.042s0 .002.003.005a.11.11 0 0 0 .02.02c.025.02.07.043.131.056.13.026.235-.013.294-.072l.875-.875a.934.934 0 0 1 .135-.112.123.123 0 0 0 .012-.051v-.007a.945.945 0 0 1-.028-.106l-2.25-11.125a.937.937 0 0 1 .256-.849l4.125-4.125c.634-.634.634-1.54 0-2.174Zm-3.5-1.326c1.366-1.366 3.46-1.366 4.826 0 1.366 1.366 1.366 3.46 0 4.826l-3.77 3.77 2.142 10.586c.2.69-.002 1.565-.676 2.073l-.821.82a2.194 2.194 0 0 1-1.987.585c-.635-.127-1.296-.552-1.557-1.3l-2.723-7.017-2.923 2.922.21 2.313a.963.963 0 0 1 .005.085c0 .561-.184 1.197-.65 1.663l-1.375 1.375a.938.938 0 0 1-1.467-.18l-2.504-4.175-4.174-2.504a.938.938 0 0 1-.261-1.376l1.25-1.625a.939.939 0 0 1 .08-.09c.466-.466 1.102-.65 1.663-.65.028 0 .057 0 .085.003l2.313.21 2.917-2.917-7.15-2.733a.933.933 0 0 1-.084-.037c-1.236-.618-1.763-2.358-.619-3.502l.875-.875c.276-.275.624-.429.903-.514.292-.09.603-.136.885-.136.062 0 .125.007.186.02l10.632 2.15 3.77-3.77ZM67.814 11.883a2.559 2.559 0 1 0 1.717 4.82 2.559 2.559 0 0 0-1.717-4.82Zm-3.159 3.842a4.265 4.265 0 1 1 8.035-2.863 4.265 4.265 0 0 1-8.035 2.863Z" fill="#fff"/><path fill-rule="evenodd" clip-rule="evenodd" d="M66.287 7.597a7.108 7.108 0 0 0-4.31 9.082c.892 2.505 3.573 4.652 6.23 6.217a33.861 33.861 0 0 0 4.285 2.119 33.877 33.877 0 0 0 1.98-4.351c1.07-2.892 1.79-6.25.897-8.756a7.108 7.108 0 0 0-9.082-4.31Zm6.584 18.481-.29.803-.002-.001-.007-.003-.024-.008a13.956 13.956 0 0 1-.411-.158 35.578 35.578 0 0 1-4.796-2.345c-2.692-1.586-5.86-3.995-6.971-7.115a8.814 8.814 0 1 1 16.606-5.915c1.11 3.119.18 6.989-.903 9.919a35.573 35.573 0 0 1-2.405 5.151l-.048.08-.013.023-.003.006-.001.002-.732-.439Zm0 0 .731.44a.854.854 0 0 1-1.02.363l.289-.803ZM8.053 53.7a.99.99 0 0 0-.254 1.378l4.495 6.527a.99.99 0 0 0 1.378.254l6.527-4.495a.99.99 0 0 0 .254-1.378l-4.495-6.527a.99.99 0 0 0-1.378-.254L8.053 53.7ZM6.82 55.752a2.179 2.179 0 0 1 .558-3.03l6.527-4.496a2.179 2.179 0 0 1 3.032.559l4.495 6.527a2.179 2.179 0 0 1-.559 3.03l-6.527 4.496a2.179 2.179 0 0 1-3.031-.559L6.82 55.752Z" fill="#fff"/><path fill-rule="evenodd" clip-rule="evenodd" d="M10.533 54.157a.594.594 0 0 1 .152-.826l2.61-1.798a.594.594 0 1 1 .675.979l-2.61 1.798a.594.594 0 0 1-.827-.153ZM14.324 61.41a.594.594 0 0 1 .827.152l.45.653a.594.594 0 1 1-.98.674l-.45-.653a.594.594 0 0 1 .153-.826ZM19.546 57.813a.594.594 0 0 1 .827.153l.45.653a.594.594 0 1 1-.98.674l-.45-.653a.594.594 0 0 1 .153-.827ZM6.53 51.14a2.179 2.179 0 0 1 .559-3.03l2.61-1.799a2.179 2.179 0 0 1 3.032.559l1.348 1.958a.594.594 0 0 1-.979.674l-1.348-1.958a.99.99 0 0 0-1.378-.254l-2.61 1.798a.99.99 0 0 0-.255 1.378l1.349 1.958a.594.594 0 0 1-.98.674L6.53 51.14ZM13.34 54.39a.594.594 0 0 1 .826.152l2.247 3.264a.594.594 0 0 1-.979.674l-2.247-3.263a.595.595 0 0 1 .152-.827ZM10.728 56.188a.594.594 0 0 1 .827.152l2.248 3.264a.594.594 0 1 1-.98.674l-2.247-3.263a.594.594 0 0 1 .152-.827ZM15.95 52.592a.594.594 0 0 1 .827.152l2.247 3.264a.594.594 0 1 1-.979.674l-2.247-3.264a.594.594 0 0 1 .152-.826ZM28.653 50.681a.875.875 0 0 1 .633-1.063l12.353-3.137c5.121-1.3 10.48.987 13.082 5.586a4.714 4.714 0 0 1-2.943 6.89l-18.902 4.8a.875.875 0 0 1-.43-1.696l18.901-4.8a2.964 2.964 0 0 0 1.85-4.332l.762-.43-.762.43a9.967 9.967 0 0 0-11.127-4.752l-12.354 3.137a.875.875 0 0 1-1.063-.633ZM32.674 66.519a.875.875 0 0 1 .633-1.064l22.625-5.745a.875.875 0 0 1 .43 1.696l-22.624 5.745a.875.875 0 0 1-1.064-.632Z" fill="#fff"/><path fill-rule="evenodd" clip-rule="evenodd" d="M45.35 50.249a2.767 2.767 0 0 1 1.853-1.569l3.03-.77a.875.875 0 0 1 .431 1.697l-3.03.77a1.017 1.017 0 0 0-.646 1.468l-.79.425.79-.425a2.184 2.184 0 0 0 2.461 1.082l4.38-1.112a.875.875 0 1 1 .431 1.696l-4.38 1.112a3.934 3.934 0 0 1-4.433-1.95l.75-.403-.75.404a2.768 2.768 0 0 1-.097-2.425l.801.352-.8-.352ZM29.515 54.075a.875.875 0 0 1 .632-1.064l9.05-2.298a3.21 3.21 0 0 1 1.58 6.222l-9.05 2.298a.875.875 0 1 1-.43-1.697l9.05-2.298a1.46 1.46 0 1 0-.719-2.828l-9.05 2.298a.875.875 0 0 1-1.063-.633Z" fill="#fff"/><path fill-rule="evenodd" clip-rule="evenodd" d="M36.935 51.288a.875.875 0 0 1 1.063.633l1.15 4.525a.875.875 0 1 1-1.697.43l-1.149-4.525a.875.875 0 0 1 .633-1.063ZM32.41 52.437a.875.875 0 0 1 1.063.633l1.15 4.525a.875.875 0 0 1-1.697.43L31.777 53.5a.875.875 0 0 1 .633-1.063ZM99.355 7.224a3.703 3.703 0 0 0-4.404 2.832l-2.42 11.132c-.167.77.32 1.527 1.09 1.694l12.244 2.662c.77.167 1.528-.32 1.695-1.09l2.42-11.131a3.703 3.703 0 0 0-2.832-4.405l-7.793-1.694Zm-6.073 2.47a5.411 5.411 0 0 1 6.436-4.139l7.793 1.694a5.411 5.411 0 0 1 4.138 6.436l-2.42 11.132a3.132 3.132 0 0 1-3.726 2.396l-12.246-2.662a3.132 3.132 0 0 1-2.395-3.726l2.42-11.132Z" fill="#fff"/><path fill-rule="evenodd" clip-rule="evenodd" d="M94.444 20.438a.854.854 0 0 1 1.016-.653l1.113.242a.854.854 0 1 1-.363 1.669l-1.113-.242a.854.854 0 0 1-.653-1.016ZM103.349 22.374a.854.854 0 0 1 1.016-.653l1.113.241a.853.853 0 1 1-.363 1.67l-1.113-.242a.854.854 0 0 1-.653-1.016ZM91.83 16.372a.854.854 0 0 1 1.016-.653l16.698 3.63a.854.854 0 1 1-.363 1.669l-16.698-3.63a.854.854 0 0 1-.653-1.016ZM92.324 22.069c.46.1.753.555.653 1.016l-.474 2.177a.285.285 0 0 0 .219.34l1.113.241a.286.286 0 0 0 .339-.218l.363-1.67a.854.854 0 1 1 1.669.363l-.363 1.67a1.994 1.994 0 0 1-2.371 1.524l-1.113-.242a1.994 1.994 0 0 1-1.525-2.37l.474-2.178a.854.854 0 0 1 1.016-.653ZM107.383 25.342c.461.1.753.555.653 1.016l-.473 2.177a1.994 1.994 0 0 1-2.371 1.525l-1.114-.242a1.994 1.994 0 0 1-1.524-2.371l.363-1.67a.854.854 0 1 1 1.669.363l-.363 1.67a.286.286 0 0 0 .218.339l1.113.242a.286.286 0 0 0 .34-.218l.473-2.178a.854.854 0 0 1 1.016-.653Z" fill="#fff"/><path fill-rule="evenodd" clip-rule="evenodd" d="M102.647 10.855c.46.1.753.555.653 1.016l-1.452 6.679a.854.854 0 1 1-1.669-.363l1.452-6.68a.854.854 0 0 1 1.016-.652Z" fill="#fff"/><path fill-rule="evenodd" clip-rule="evenodd" d="M93.282 9.693a.854.854 0 0 1 1.016-.653l16.698 3.63a.854.854 0 1 1-.363 1.668l-16.698-3.63a.854.854 0 0 1-.653-1.015Z" fill="#fff"/><path fill-rule="evenodd" clip-rule="evenodd" d="M92.023 11.46a.286.286 0 0 0-.34.217l-.483 2.227a.286.286 0 0 0 .218.339l1.67.363a.854.854 0 1 1-.363 1.669l-1.67-.363a1.994 1.994 0 0 1-1.524-2.371l.484-2.227a1.994 1.994 0 0 1 2.37-1.524l1.67.363a.854.854 0 0 1-.362 1.67l-1.67-.364ZM109.738 14.436a.853.853 0 0 1 1.015-.653l1.67.363a1.994 1.994 0 0 1 1.525 2.37l-.484 2.227a1.994 1.994 0 0 1-2.371 1.525l-1.67-.363a.853.853 0 1 1 .363-1.67l1.669.364a.286.286 0 0 0 .34-.219l.484-2.226a.286.286 0 0 0-.219-.34l-1.669-.362a.853.853 0 0 1-.653-1.016Z" fill="#fff"/><path d="m138.585 19.178-12.903 5.848" stroke="#fff" stroke-width="1.5" stroke-linecap="round" stroke-linejoin="round"/><path clip-rule="evenodd" d="M128.141 7.061v0a7.4 7.4 0 0 1 7.498 6.305l.037.242a1.767 1.767 0 0 1-1.705 2.027l-11.239.27a1.767 1.767 0 0 1-1.801-1.943l.024-.243a7.401 7.401 0 0 1 7.186-6.658Z" stroke="#fff" stroke-width="1.5" stroke-linecap="round" stroke-linejoin="round"/><path d="m128.141 7.061.591.75a9.43 9.43 0 0 1 1.796 7.907v0M128.141 7.061l-.555.778a9.435 9.435 0 0 0-1.413 7.984v0M128.349 15.768l.196 7.96" stroke="#fff" stroke-width="1.5" stroke-linecap="round" stroke-linejoin="round"/><path fill-rule="evenodd" clip-rule="evenodd" d="M149.062 10c0-4.917 4.021-8.938 8.938-8.938 4.917 0 8.938 4.02 8.938 8.938 0 4.917-4.021 8.938-8.938 8.938-4.917 0-8.938-4.02-8.938-8.938ZM158 2.437c-4.158 0-7.562 3.405-7.562 7.563 0 4.158 3.404 7.563 7.562 7.563s7.562-3.405 7.562-7.563c0-4.158-3.404-7.563-7.562-7.563Z" fill="#fff"/><path fill-rule="evenodd" clip-rule="evenodd" d="m160.696 7.307-4.134 1.114a.23.23 0 0 0-.162.162l-1.096 4.11 4.134-1.113a.23.23 0 0 0 .162-.162l1.096-4.11Zm-4.492-.214c-.553.15-.985.582-1.132 1.136l-1.199 4.493a1.146 1.146 0 0 0 1.405 1.402l4.518-1.216c.553-.15.985-.583 1.132-1.136l1.199-4.493a1.146 1.146 0 0 0-1.405-1.402l-4.518 1.216Z" fill="#fff"/><path d="M157.999 9.77a.23.23 0 1 0 .003.458.23.23 0 0 0-.003-.457M158 1.75v1.375M158 18.25v-1.375M166.25 10h-1.375M149.75 10h1.375" stroke="#fff" stroke-width="1.5" stroke-linecap="round" stroke-linejoin="round"/><path clip-rule="evenodd" d="m91.386 62.045 5.862 1.525c.18.047.287.23.24.41l-.593 2.28a1.346 1.346 0 0 1-1.641.963l-3.908-1.016a1.346 1.346 0 0 1-.964-1.642l.594-2.28a.337.337 0 0 1 .41-.24ZM95.334 58.9c2.302.6 5.232-2.997 6.542-8.032 1.311-5.036.507-9.604-1.796-10.203-2.303-.6-5.232 2.997-6.542 8.032-1.311 5.036-.507 9.603 1.796 10.203Z" stroke="#fff" stroke-width="1.5" stroke-linecap="round" stroke-linejoin="round"/><path d="m101.009 60.377-11.35-2.954M92.55 62.347l-4.333-7.382a9.853 9.853 0 0 1-1.224-6.599v0c.946-5.718 6.598-9.39 12.208-7.93l1.76.458c5.609 1.46 8.754 7.422 6.792 12.876v0a9.862 9.862 0 0 1-4.285 5.165l-7.384 4.332" stroke="#fff" stroke-width="1.5" stroke-linecap="round" stroke-linejoin="round"/><path fill-rule="evenodd" clip-rule="evenodd" d="M64.082 49.255a3.149 3.149 0 0 0-2.51-.482.64.64 0 1 1-.29-1.249 4.43 4.43 0 0 1 3.532.68c.73.508 1.643.683 2.51.482a4.43 4.43 0 0 1 3.532.679c.731.508 1.643.683 2.51.482a4.431 4.431 0 0 1 3.533.68.641.641 0 0 1-.732 1.051 3.148 3.148 0 0 0-2.51-.482 4.43 4.43 0 0 1-3.533-.68 3.149 3.149 0 0 0-2.51-.482 4.43 4.43 0 0 1-3.532-.679ZM66.384 41.602a.641.641 0 0 1 .75-.509l6.714 1.29a.641.641 0 0 1-.242 1.26l-6.714-1.291a.641.641 0 0 1-.508-.75ZM65.738 44.959a.64.64 0 0 1 .75-.509l6.715 1.29A.64.64 0 1 1 72.96 47l-6.713-1.291a.64.64 0 0 1-.509-.75Z" fill="#fff"/><path fill-rule="evenodd" clip-rule="evenodd" d="M75.671 39.688a.641.641 0 0 0-.75.509l-1.533 7.972a.64.64 0 1 1-1.259-.241l1.533-7.973a1.923 1.923 0 0 1 3.776.726.64.64 0 1 1-1.258-.242.641.641 0 0 0-.509-.75ZM68.957 38.398a.642.642 0 0 0-.75.508l-1.532 7.973a.64.64 0 0 1-1.26-.242l1.533-7.973a1.923 1.923 0 0 1 3.777.726.64.64 0 1 1-1.259-.242.642.642 0 0 0-.508-.75ZM63.437 52.612a3.149 3.149 0 0 0-2.51-.482.641.641 0 0 1-.29-1.249 4.43 4.43 0 0 1 3.532.679c.73.508 1.643.684 2.51.483a4.43 4.43 0 0 1 3.532.678c.73.51 1.643.684 2.51.483a4.43 4.43 0 0 1 3.532.68.64.64 0 1 1-.732 1.051 3.148 3.148 0 0 0-2.51-.482 4.431 4.431 0 0 1-3.532-.68 3.149 3.149 0 0 0-2.51-.482 4.43 4.43 0 0 1-3.532-.679ZM130.482 58.243a.768.768 0 0 1 .528.949l-.422 1.476a.256.256 0 0 0 .176.317l1.968.562a.257.257 0 0 0 .317-.176l.422-1.477a.767.767 0 1 1 1.476.422l-.422 1.476a1.791 1.791 0 0 1-2.214 1.23l-1.969-.562a1.792 1.792 0 0 1-1.23-2.214l.422-1.476a.767.767 0 0 1 .948-.527ZM116.703 54.307a.766.766 0 0 1 .527.949l-.421 1.476a.256.256 0 0 0 .176.317l1.968.562a.257.257 0 0 0 .317-.176l.422-1.476a.767.767 0 1 1 1.475.421l-.421 1.477a1.792 1.792 0 0 1-2.214 1.23l-1.969-.562a1.79 1.79 0 0 1-1.23-2.214l.422-1.477a.767.767 0 0 1 .948-.527Z" fill="#fff"/><path fill-rule="evenodd" clip-rule="evenodd" d="M120.337 47.063a.765.765 0 0 1 .583-.067l13.78 3.935a.77.77 0 0 1 .46.366l.788 1.418c.495.89.615 1.94.336 2.919l-1.338 4.682a.767.767 0 0 1-.948.527l-17.716-5.06a.766.766 0 0 1-.527-.948l1.337-4.682a3.833 3.833 0 0 1 1.826-2.3c.001-.001 0 0 0 0l1.419-.79Zm.468 1.496-1.142.635a2.303 2.303 0 0 0-1.096 1.38l-1.126 3.944 16.24 4.639 1.127-3.944a2.303 2.303 0 0 0-.202-1.753l-.633-1.14-13.168-3.761Z" fill="#fff"/><path fill-rule="evenodd" clip-rule="evenodd" d="M136.086 56.317a.768.768 0 0 1-.902.604l-3.023-.597a.768.768 0 0 1 .298-1.506l3.023.598a.767.767 0 0 1 .604.901ZM116.899 50.837a.767.767 0 0 1 .989-.446l2.882 1.09a.767.767 0 1 1-.542 1.435l-2.883-1.09a.767.767 0 0 1-.446-.989ZM122.608 53.346a.767.767 0 0 1 .844-.304l5.905 1.686c.318.09.542.375.556.705l.141 3.233a.768.768 0 0 1-1.533.067l-.117-2.681-4.842-1.383-1.515 2.215a.768.768 0 0 1-1.267-.866l1.828-2.672ZM137.506 51.273a.768.768 0 0 1-.793.741l-2.109-.07a.767.767 0 0 1 .051-1.534l2.109.07a.768.768 0 0 1 .742.793ZM118.358 45.804a.767.767 0 0 1 1.048-.281l1.828 1.054a.767.767 0 1 1-.767 1.33l-1.828-1.055a.767.767 0 0 1-.281-1.048Z" fill="#fff"/><path fill-rule="evenodd" clip-rule="evenodd" d="M125.245 43.972a1.79 1.79 0 0 0-2.029.804l-1.654 2.767-.114.401a.768.768 0 0 1-1.476-.421l.142-.498a.76.76 0 0 1 .079-.183l1.705-2.852a3.325 3.325 0 0 1 3.768-1.494l7.465 2.132a3.328 3.328 0 0 1 2.41 3.345l-.143 3.232a.758.758 0 0 1-.029.177l-.142.498a.767.767 0 1 1-1.476-.422l.118-.41.138-3.142a1.792 1.792 0 0 0-1.298-1.802l-7.464-2.132ZM147.622 22.12v2.252h3.316l-.75-2.252h-2.566Zm-2.25-.375c0-1.035.839-1.875 1.875-1.875h3.211c.807 0 1.524.517 1.779 1.282l1.33 3.99a1.128 1.128 0 0 1-1.068 1.48h-6.002a1.125 1.125 0 0 1-1.125-1.125v-3.752ZM145.447 41.535a5.637 5.637 0 0 0-4.503 0l-.899-2.063a7.89 7.89 0 0 1 6.301 0 5.64 5.64 0 0 0 4.504 0 7.887 7.887 0 0 1 6.3 0 5.64 5.64 0 0 0 4.504 0 7.89 7.89 0 0 1 6.301 0l-.899 2.063a5.637 5.637 0 0 0-4.503 0 7.89 7.89 0 0 1-6.301 0 5.639 5.639 0 0 0-4.504 0 7.89 7.89 0 0 1-6.301 0ZM156.252 46.036a5.64 5.64 0 0 0-4.504 0 7.887 7.887 0 0 1-6.3 0l.898-2.062a5.64 5.64 0 0 0 4.504 0 7.89 7.89 0 0 1 6.301 0 5.637 5.637 0 0 0 4.503 0l.899 2.063a7.89 7.89 0 0 1-6.301 0Z" fill="#fff"/><path fill-rule="evenodd" clip-rule="evenodd" d="m145.803 26.907-1.216 4.865a1.125 1.125 0 1 1-2.183-.545l1.217-4.866a2.625 2.625 0 0 1 2.547-1.989h10.479c1.563 0 2.992.883 3.691 2.281l2.171 4.344a1.125 1.125 0 1 1-2.012 1.006l-2.172-4.344a1.876 1.876 0 0 0-1.678-1.037h-10.479a.377.377 0 0 0-.365.285Z" fill="#fff"/><path fill-rule="evenodd" clip-rule="evenodd" d="M141.996 32.624a.376.376 0 0 0-.369.45l1.355 6.772a1.125 1.125 0 0 1-2.207.442l-1.354-6.773a2.626 2.626 0 0 1 2.575-3.14h24.007a2.627 2.627 0 0 1 2.251 3.976l-3.773 6.289a1.125 1.125 0 1 1-1.929-1.158l3.773-6.289a.377.377 0 0 0-.322-.569h-24.007ZM162.892 58.68a.625.625 0 0 1 .47.75l-1.947 8.494a.625.625 0 1 1-1.218-.279l1.947-8.495a.624.624 0 0 1 .748-.47Z" fill="#fff"/><path fill-rule="evenodd" clip-rule="evenodd" d="M156.562 52.766a1.459 1.459 0 0 1 1.667.382v.001l6.349 7.284a.625.625 0 1 1-.942.821l-6.348-7.283a.21.21 0 0 0-.239-.054h-.001l-8.95 3.778a.625.625 0 1 1-.486-1.152l8.949-3.777h.001Z" fill="#fff"/><path fill-rule="evenodd" clip-rule="evenodd" d="M159.613 53.399c.128-.561.687-.912 1.248-.783l2.438.559c.561.128.911.687.783 1.248l-.977 4.26a.625.625 0 1 1-1.218-.279l.93-4.057-2.032-.466-.44 1.917a.625.625 0 1 1-1.218-.28l.486-2.12ZM145.57 64.293a.625.625 0 0 1 .749-.47l16.252 3.725a.626.626 0 0 1-.279 1.218l-16.253-3.724a.625.625 0 0 1-.469-.75Z" fill="#fff"/><path fill-rule="evenodd" clip-rule="evenodd" d="M149.889 55.71a.625.625 0 0 1 .469.75l-1.945 8.485a.624.624 0 1 1-1.218-.28l1.945-8.485a.625.625 0 0 1 .749-.47ZM155.939 61.965c.129-.561.687-.911 1.248-.783l2.438.559c.561.128.912.687.783 1.248l-.372 1.626c-.129.56-.688.91-1.249.782l-2.438-.559a1.041 1.041 0 0 1-.782-1.248l.372-1.625Zm1.172.482-.279 1.22 2.032.465.279-1.22-2.032-.465ZM151.829 61.237l-.978 4.266a.625.625 0 1 1-1.218-.28l1.024-4.468c.129-.561.688-.912 1.248-.783l2.032.465c.561.129.911.688.783 1.249l-1.025 4.469a.624.624 0 1 1-1.218-.28l.978-4.266-1.626-.372Z" fill="#fff"/></g><defs><clipPath id="a"><path fill="#fff" d="M0 0h178v74H0z"/></clipPath></defs></svg>