<svg width="97" height="62" fill="none" xmlns="http://www.w3.org/2000/svg"><g clip-path="url(#a)"><mask id="b" style="mask-type:luminance" maskUnits="userSpaceOnUse" x="0" y="0" width="97" height="136"><path d="M97 0H0v136h97V0Z" fill="#fff"/></mask><g mask="url(#b)" fill="#fff"><path d="M17.6 35.4c-1 0-1.6-1.5-1.7-1.8-.6-1.7-.2-3.7.1-5.4l-.2.1c-.9.2-1.8.5-2.7.6h-.7c-.8 0-1.4-.2-1.8-.7-1.2-1.4.3-3.3 1.2-4.6l.2-.3c-.8-.9-1.6-1.8-2.4-2.9-.9-1.2-2.2-2.9-2.5-4.7-.2-1.5.8-2.7 2.4-3 .3-.1.7-.1 1.1-.1 1.5 0 3.1.5 4.4 1.1 1 .4 1.9.8 2.7 1.2l.1-.2c.7-1.2 1.9-2.9 3.3-2.9.2 0 .5 0 .7.1.8.3 1.2 1.2 1.4 2.1.2.9.3 1.8.5 2.7v.3c1.5-1 3.3-2.1 5.1-2.1.4 0 .8.1 1.2.2 1.1.4 1.2 1.1.9 2-.7 2-1.8 3.9-3 5.7l-.4.6c-1.7 2.7-3.5 5.3-5.3 7.6-.7.9-1.5 1.9-2.4 2.9l-.1.1c-.5.5-1 1.1-1.7 1.4-.1-.1-.2 0-.4 0Zm-.9-8.5c.1 0 .3.1.4.2.1.1.1.3.1.4l-.2.7c-.4 1.8-.9 4.1.1 5.6.2.3.3.5.4.5h.1c.2-.1.5-.3.7-.5 1.6-1.5 2.9-3.2 4.1-4.9l.1-.1c1.6-2.2 3.2-4.5 4.6-6.8l.3-.5c1-1.6 2-3.2 2.6-4.9.1-.3.2-.6.1-.8-.1-.2-.5-.2-.8-.2h-.4c-1.6 0-3.2 1.1-4.7 2l-.5.4c-.1 0-.2.1-.2.1-.2 0-.5-.2-.5-.4 0-.3-.1-.7-.1-1-.1-.6-.1-1.2-.2-1.7v-.2c-.1-.7-.3-1.6-.8-2-.2-.1-.3-.2-.5-.2-.9 0-2 1.8-2.6 2.6-.1.2-.2.4-.3.5-.1.1-.3.2-.4.2-.1 0-.2 0-.2-.1-1-.6-2.1-1.1-3.2-1.5-1.2-.5-2.6-.9-3.8-.9-.4 0-.7 0-1.1.1-.3.1-1.2.3-1.5 1.1-.2.6 0 1.3.3 1.8 1 2.4 2.9 4.5 4.6 6.3.2.2.2.4.1.6l-.4.6c-.4.6-.9 1.3-1.3 2s-.4 1.2 0 1.5c.2.2.5.3 1 .3.4 0 .9-.1 1.3-.2h.1c.6-.1 1.2-.3 1.8-.4.1 0 .8-.2.9-.2Z"/><path d="M12.5 23c-.8 1.2-2.9 3.5-1.7 5 .5.7 1.5.6 2.3.6 1.3-.1 2.5-.5 3.7-.8l-.4-.4c-.4 1.9-.9 4.2-.3 6.1.3.8.9 2.1 1.9 1.6.7-.3 1.2-1 1.7-1.5.9-.9 1.6-1.9 2.4-2.9 1.9-2.5 3.7-5 5.3-7.6 1.2-2 2.6-4 3.3-6.3.3-.9.2-1.4-.7-1.8-2.3-.8-4.9 1.1-6.8 2.3.1.1.3.1.4.2-.2-1.2-.3-2.5-.6-3.7-.2-.7-.5-1.6-1.3-1.9-1.9-.7-3.3 2.2-4.1 3.4l.4-.1c-1-.6-2-1-3.1-1.5-1.7-.6-3.6-1.3-5.4-.9-1.3.2-2.3 1.2-2.1 2.7.2 1.7 1.4 3.3 2.4 4.6.8 1.1 1.7 2.2 2.7 3.1.3.3.7-.1.4-.4-1.8-1.8-3.7-4-4.7-6.4-.2-.6-.5-1.3-.3-2s.9-1.1 1.6-1.2c1.6-.4 3.5.2 5 .8 1.1.4 2.2.9 3.3 1.5.1.1.3 0 .4-.1.6-.8 2.3-4.1 3.7-2.9.6.5.7 1.6.9 2.3.2.9.3 1.8.4 2.8 0 .2.3.3.4.2 1.6-1 3.7-2.6 5.8-2.4 1.1.1 1.2.4.9 1.3-.7 1.9-1.8 3.7-2.9 5.5-1.4 2.3-3 4.6-4.6 6.8-1.3 1.7-2.6 3.5-4.2 5-.2.2-.5.4-.8.6-.4.2-.6-.1-.8-.5-1.2-1.8-.4-4.5 0-6.5 0-.2-.1-.4-.4-.4-.9.2-1.8.5-2.8.6-.7.1-2 .4-2.5-.2-.5-.5-.3-1.2 0-1.8.5-.9 1.1-1.8 1.7-2.6.2-.3-.3-.6-.5-.2Z"/><path d="M30.8 30.3c-.1 0-.2 0-.3-.1L10.9 16.8c-.2-.1-.3-.3-.2-.6.1-.2.2-.4.4-.4.1 0 .2 0 .3.1L31 29.4c.2.1.3.3.2.6 0 .2-.2.3-.4.3Z"/><path d="M11 16.6c6.5 4.5 13.1 9 19.6 13.5.3.2.6-.3.3-.5-6.5-4.5-13.1-9-19.6-13.5-.3-.2-.6.3-.3.5Z"/><path d="M14.502 25.7c-.2 0-.4-.1-.4-.3-.1-.2 0-.4.2-.6.9-.7 1.9-1.2 2.9-1.5.5-.1 1-.2 1.6-.4.3 0 .6-.1.9-.1h.6l-.1-.3c-.1-.3-.1-.6-.2-.9-.1-.6-.2-1.2-.3-1.6-.1-1.2 0-2.4.3-3.6.1-.2.2-.4.5-.4.2 0 .3.1.4.2.1.1.1.3.1.4-.4 1.3-.4 2.7-.1 4.3l.3 1.2.1.6c.1.3.1.6-.1.8-.2.2-.7.2-1.1.3h-.3c-.5.1-1.1.2-1.6.3-1.2.3-2.3.8-3.3 1.5-.2 0-.3.1-.4.1Z"/><path d="M20.302 16.3c-.3 1.2-.4 2.4-.3 3.6.1.5.2 1.1.3 1.6.1.3.1.6.2.9 0 .1.1.3.1.4.1.1.1.1 0 0-.2.2-.6.1-.8.2-.3 0-.6.1-.9.1-.5.1-1.1.2-1.6.4-1 .3-2 .8-2.9 1.4-.3.2 0 .7.3.5 1-.8 2.2-1.3 3.4-1.6.5-.1 1.1-.2 1.6-.3.3 0 1.1 0 1.4-.2.2-.2.1-.4.1-.6-.1-.6-.3-1.2-.4-1.9-.3-1.5-.3-2.9.1-4.4 0-.3-.5-.5-.6-.1ZM48.3 68.7c-.4 0-.9-.1-1.3-.2-2.2-.9-3.9-2.7-5.2-4.3-1.6-2-2.5-3.8-2.8-5.7-.1-1.1.2-1.8.9-2.1.2-.1.5-.2.8-.2.3 0 .6.1.9.2.1 0 .1.1.2.1-.2-.3-.3-.6-.4-1-.4-1.1-.8-2.3-.5-3.4.2-1 1-1.6 2-1.6.6 0 1.4.2 2.1.6-.1-.6 0-1.2.1-2 .2-.8.6-2.3 1.8-3 .4-.2.9-.4 1.4-.4.7 0 1.3.2 1.8.6 1.1 1 1.8 3 1.6 4.7.7-.4 1.4-.6 2.1-.6 1.1 0 1.8.6 2 1.6.3 1.1-.1 2.4-.6 3.5-.1.3-.2.5-.4.8.4-.2.8-.3 1.1-.3.5 0 1 .2 1.4.7.7.9.5 2.5-.6 4.7-1 1.9-2.5 3.5-3.6 4.6l-.1.3c-1.8 1.6-3.3 2.4-4.7 2.4Zm-7.5-11.5c-.3 0-.5.1-.7.3-.5 1 1.1 4.2 1.6 5 1.5 2.2 3.3 3.9 5 4.8.6.3 1.1.4 1.6.4.4 0 .8-.1 1.3-.3.9-.4 1.8-1 2.9-2 2-1.9 4.2-4.4 4.3-7.3 0-.4 0-.6-.2-.8-.1-.1-.2-.2-.4-.2-.5 0-1.2.4-1.6.7-.5.5-1 1-1.5 1.7-.1.1-.2.2-.4.2s-.4-.1-.5-.3c-.1-.1-.1-.3 0-.5 1.1-1.6 2.3-3.5 2.7-5.6.1-.7 0-1.2-.3-1.6-.2-.2-.5-.4-.9-.4h-.2c-.8.1-1.8.6-2.4 1.3-.1.3-.2.4-.4.4s-.3-.1-.4-.3c-.1-.2-.1-.4.1-.5.7-.9.3-2.7.2-3.2-.3-1-.9-2.2-2.1-2.2-1.4 0-1.9 1.4-2.2 2.3-.1.5-.5 2.2.2 3.1.1.2.1.4.1.5-.1.2-.3.3-.4.3-.1 0-.2-.1-.3-.2-.7-.7-1.6-1.2-2.4-1.3h-.2c-.4 0-.7.1-.9.4-.3.3-.4.9-.3 1.6.4 2.1 1.6 4 2.7 5.6.1.1.1.3 0 .5s-.3.3-.5.3-.3-.1-.4-.2l-.1-.1c-.4-.6-1.6-2.3-2.8-2.4h-.2Z"/><path d="M53.002 66c1.4-1.3 2.7-2.8 3.6-4.6.6-1.1 1.6-3.3.7-4.5-1.5-1.9-4 1-4.9 2.2.2.1.3.2.5.3.8-1.2 1.6-2.5 2.2-3.9.4-1 .8-2.3.6-3.4-.6-2.6-3.9-1.2-5.1.1l.4.4c1.3-1.6.6-4.9-.9-6.1-.8-.7-2-.8-2.9-.2-1 .6-1.5 1.8-1.7 2.9-.2 1.1-.3 2.5.5 3.5l.4-.4c-1.2-1.3-4.5-2.6-5.1-.1-.2 1.1.2 2.3.5 3.2.6 1.4 1.4 2.8 2.2 4 .2-.1.3-.2.5-.3-.7-1-1.6-2.1-2.8-2.6-.5-.2-1.1-.3-1.6 0-.8.4-.9 1.2-.8 1.9.2 2.1 1.4 4 2.7 5.6 1.4 1.7 3.1 3.4 5.1 4.2 2.1 1 4.4-.7 5.9-2.2.3-.3-.1-.7-.4-.4-.9.8-1.8 1.6-2.9 2-1.1.4-2 .4-3-.2-2-1-3.8-3-5.1-4.9-.6-.8-3.2-5.8-.7-5.6 1.2.1 2.4 1.6 3 2.5.2.3.7 0 .5-.3-1.2-1.7-2.3-3.6-2.7-5.7-.2-1.1.2-2.3 1.6-2.2 1 .1 1.9.7 2.6 1.4.3.3.6-.1.4-.4-.7-.7-.5-2.2-.3-3.2.3-1.2 1-2.4 2.4-2.4 1.3 0 2 1.2 2.3 2.3.3 1 .5 2.5-.2 3.4-.2.3.2.7.4.4.6-.7 1.6-1.3 2.6-1.4 1.4-.1 1.8 1.1 1.6 2.2-.4 2.1-1.5 4-2.7 5.7-.2.3.3.6.5.3.4-.6 1-1.2 1.5-1.7.8-.7 2.6-1.5 2.6.4-.1 3-2.4 5.5-4.4 7.5-.3.2.1.6.4.3Z"/><path d="M48.3 74.6c-.3 0-.5-.2-.5-.5-.1-6 0-12.1.2-18.1 0-.3.3-.5.5-.5.1 0 .301.1.401.1.1.1.1.3.1.4-.3 6-.4 12.1-.2 18.2 0 .1 0 .3-.1.3-.1.1-.2.1-.4.1Z"/><path d="M48.2 56c-.2 6-.3 12.1-.2 18.2 0 .4.6.4.6 0-.1-6.1-.1-12.2.2-18.2 0-.4-.5-.4-.6 0ZM80.002 24.8c-1.8 0-3.2-.6-4-1.6-1.4-1.9-1.8-4.4-2.1-6.4-.3-2.6-.1-4.6.7-6.3.4-.9 1-1.3 1.7-1.3h.2c.6 0 1.1.4 1.5 1 0 .1.1.1.1.2 0-.4.1-.7.2-1 .2-1.1.6-2.4 1.4-3.1.4-.4.9-.6 1.4-.6 1.1 0 2 1 2.6 2 .3-.5.6-1.1 1.2-1.6.6-.6 1.7-1.6 3-1.6 1.2 0 2.3.9 2.6 2 .4 1.4-.1 3.5-1.2 4.8 1 .1 2.2.5 2.7 1.3.4.5.4 1.1.2 1.8-.4 1.1-1.4 1.9-2.4 2.6-.2.2-.5.3-.7.5 1.4.1 1.8 1 1.9 1.7.1 1.1-.9 2.3-3.1 3.6-1.9 1.1-3.9 1.6-5.5 1.9h-.2c-.8 0-1.6.1-2.2.1Zm-3.6-14.7c-.2 0-.3.1-.5.2-.9.9-1.1 4.1-1.1 4.9.1 2.7.7 5.1 1.6 6.8.6 1 1.2 1.5 2.3 1.7.4.1.9.1 1.3.1.6 0 1.3-.1 2.1-.2 2.7-.5 5.9-1.4 7.6-3.8.3-.4.3-.7.2-.9-.2-.4-.9-.6-1.6-.6h-.4c-.7.1-1.4.3-2.2.6h-.2c-.2 0-.5-.2-.5-.4s.1-.4.3-.5c1.8-.7 3.8-1.7 5.2-3.2.5-.5.7-1.1.6-1.5-.1-.4-.3-.6-.7-.9-.5-.2-1-.4-1.6-.4-.4 0-.8 0-1.1.1h-.1c-.2 0-.4-.2-.4-.4 0-.3.1-.5.3-.6 1.1-.4 1.7-2.1 1.9-2.6.3-1 .4-2.3-.6-3-.3-.2-.6-.3-.9-.3-.6 0-1.4.4-2.1 1-.4.4-1.6 1.6-1.5 2.7 0 .1 0 .3-.1.4-.1.1-.2.2-.4.2s-.3-.1-.4-.2h-.1v-.2c-.2-1-.7-1.9-1.3-2.4-.3-.2-.5-.3-.8-.3-.6 0-1.1.6-1.4 1.2-.8 2-.8 4.2-.8 6.1 0 .1 0 .2-.1.3-.1.1-.2.1-.3.1-.2 0-.5-.2-.5-.5 0-.8-.1-2.9-1.1-3.6-.3.2-.5.1-.6.1Z"/><path d="M82.3 24.4c1.9-.4 3.8-.9 5.5-1.9 1.1-.6 3.1-1.9 3-3.4-.3-2.5-3.9-1.4-5.3-.8.1.2.2.3.3.5 1.4-.6 2.7-1.2 3.9-2.1.9-.6 1.9-1.5 2.3-2.5.9-2.5-2.7-3.2-4.3-2.7 0 .2.1.4.1.6 1.9-.7 3.1-3.8 2.5-5.6-.3-1-1.3-1.8-2.4-1.8-1.1 0-2.2.7-3 1.5-.8.8-1.6 2-1.5 3.2.2 0 .4-.1.6-.1-.3-1.7-2.4-4.7-4.3-2.9-.8.7-1.1 2-1.3 3-.3 1.5-.3 3.1-.3 4.6h.6c-.1-1.2-.2-2.7-1-3.7-.3-.5-.8-.8-1.3-.9-.8-.1-1.4.5-1.7 1.2-.9 1.9-1 4.1-.7 6.2.3 2.2.8 4.5 2 6.3 1.5 1.8 4.3 1.6 6.3 1.3.4-.1.2-.6-.1-.6-1.2.2-2.4.3-3.5.1-1.2-.2-1.8-.8-2.4-1.8-1.1-2-1.6-4.6-1.7-6.9 0-1 .4-6.6 2.4-5.1 1 .7 1.2 2.6 1.2 3.8 0 .4.6.4.6 0-.1-2.1 0-4.3.8-6.2.4-1.1 1.4-1.8 2.5-1 .8.6 1.3 1.6 1.4 2.5.1.4.6.2.6-.1-.1-1.1.9-2.2 1.6-2.9.9-.8 2.1-1.5 3.3-.7 1.1.7 1.1 2.1.7 3.2-.3 1-1 2.4-2 2.7-.3.1-.2.7.1.6.9-.2 2-.2 2.9.2 1.2.7.9 1.8.1 2.7-1.4 1.6-3.4 2.5-5.3 3.3-.3.1-.1.7.3.5.7-.3 1.5-.5 2.2-.6 1-.1 3 .2 1.9 1.7-1.7 2.4-5 3.3-7.7 3.9-.3.2-.2.7.1.7Z"/><path d="M74.1 29.1c-.2 0-.4-.1-.4-.3-.1-.2-.1-.3 0-.5 3.1-5.2 6.5-10.3 9.9-15.2.1-.1.2-.2.4-.2s.4.1.5.3c.1.2.1.3 0 .5-3.5 4.9-6.8 10-9.9 15.2-.2.2-.4.2-.5.2Z"/><path d="M83.7 13.3c-3.5 4.9-6.8 10-9.9 15.2-.2.3.3.6.5.3 3.1-5.2 6.4-10.2 9.9-15.2.3-.3-.2-.6-.5-.3ZM49.102 33.5c-.7 0-1.3-.2-1.9-.5-1.5-.8-2.1-2.6-1.5-4.1.4-.9 1.1-1.6 1.8-2.1l.4-.4c.2-.2.5-.4.7-.6l.1-.1c.1 0 .1-.1.2-.2l-.2.1c-1 .3-2.1.6-3.2.6-1.2 0-2.1-.4-2.7-1.1-.5-.6-.6-1.2-.5-1.8.2-1.1 1.2-2 2.1-2.4.2-.1.3-.2.5-.2.5-.2 1-.5 1.4-.8.1-.1.3-.3.3-.5-.1-.4-.9-.6-1.4-.8l-.2-.1c-1.7-.6-3.3-2.1-2.8-4.1.3-1.1 1.1-1.7 2.3-1.7.5 0 1 .1 1.5.3.1 0 .2.1.3.1.2.1.5.2.7.2.1-.1-.1-.6-.1-.8 0-.1-.1-.2-.1-.3-.3-1.1-.3-2.2-.1-3.2.3-1.4 1.2-3.7 3.1-3.7h.2c2.1.2 2.7 3.2 3 4.5 0 .2.1.3.1.5s.1.4.1.6v.1c0 .1 0 .2.1.3.2-.2.4-.4.6-.7.4-.4.8-.9 1.4-1.1.3-.1.6-.2.9-.2.7 0 1.3.3 1.7.9.5.7.6 1.6.3 2.4-.3.8-.8 1.6-1.5 2.3l-.4.4c-.2.1-.3.3-.5.4-.1.1-.2.2-.3.4l-.1.1c0 .1-.1.1-.1.2 0 0 .1 0 .2.1.1 0 .2.1.3.1.4 0 .8-.3 1.2-.6.1-.1.2-.1.3-.2.4-.3.9-.6 1.4-.8.5-.2 1-.3 1.4-.3.5 0 1 .1 1.4.4.6.4.9.9.9 1.6 0 1.3-1.2 2.7-2 3.3-.3.2-.5.4-.8.5-.3.2-.5.3-.7.5l-.1.1c-.2.1-.6.4-.7.6v.1c.1.1.3.2.7.2h.4c.3 0 .6-.1.9-.2.5-.1.9-.3 1.4-.3h.3c.9.1 1.7.8 2.1 1.7.8 1.8-.3 4.1-1.8 5.2-.9.6-1.9 1-3.3 1.2l-.6.1c-.5.1-1 .2-1.5.2h-.6c-.5 0-.9 0-1.3.4l.2-.1c-.8.7-1.5 1.4-2.4 2-1.2.9-2.4 1.3-3.5 1.3Zm.3-9.1c.3 0 .6.1.7.3.1.1.2.3.1.7-.1.6-.7 1.1-1.2 1.4-.1.1-.5.4-.5.4-.6.5-1.2 1-1.6 1.6-.5.7-.5 1.5-.2 2.2.4.8 1.3 1.4 2.3 1.4h.2c1.9 0 3.5-1.6 4.9-2.8l.4-.3c.7-.6 1.4-.6 2.1-.7.3 0 .5 0 .8-.1h.3c2.2-.4 4.8-.8 5.6-3.1.4-1 .4-2.3-.7-3-.2-.2-.5-.2-.8-.2-.4 0-.8.1-1.2.2-.2.1-.5.1-.7.2-.2 0-.4.1-.7.1-.4 0-1.5-.1-1.9-.7-.1-.2-.2-.5 0-1 .4-.7 1.1-1.2 1.8-1.6.4-.2.8-.4 1-.7.7-.6 1.5-1.6 1.4-2.3 0-.3-.2-.6-.5-.8-.2-.2-.5-.2-.8-.2-.8 0-1.7.6-2.4 1.1-.7.5-1.4 1.1-2.2 1.1h-.3c-.3-.1-.6-.2-.8-.5-.2-.3-.2-.6-.1-.9.2-.6.7-1.1 1.2-1.5l.1-.1c.7-.6 1.1-1.1 1.4-1.7.4-.7.5-1.2.3-1.7s-.7-.9-1.2-.9h-.3c-.5.1-1 .6-1.4 1.1l-.3.3c-.1.2-.2.3-.4.5s-.4.2-.6.2c-.8 0-1-1.4-1.2-2.1 0-1.6-.9-4-2-4-.3 0-.7.2-1.1.6-.7.7-1 1.8-1.1 2.5-.2 1.1 0 2 .2 3l.1.3c.1.4.2 1.1-.3 1.5-.1.1-.3.2-.5.2-.3 0-.7-.2-1-.3-.1 0-.2-.1-.3-.1-.4-.1-.9-.3-1.4-.3-.3 0-.5.1-.8.2-.4.3-.6.7-.6 1-.1.6.2 1.3.6 1.8.5.6 1.2.8 1.9 1 .2.1.3.1.5.2.5.2 1.3.5 1.5 1.3.3 1.3-1.4 2.1-2.3 2.5l-.2.1c-.7.3-1.7.9-1.9 1.8-.1.4 0 .7.2 1 .4.5 1.2.8 1.7.8h.5c.8 0 1.6-.2 2.4-.5.2-.1.4-.1.7-.2.3-.2.4-.3.6-.3Z"/><path d="M55.1 29.9c.6-.5 1.3-.4 2-.4.7-.1 1.4-.2 2-.3 1.1-.2 2.2-.5 3.2-1.2 1.5-1 2.6-3.2 1.8-4.9-.4-.8-1.1-1.5-2-1.6-.9-.1-1.8.4-2.7.5-.3 0-1.5.1-1.4-.5.1-.3.6-.7.9-.8.5-.4 1.1-.6 1.6-1 1.3-.9 3-3.3 1.2-4.5-.8-.5-1.8-.4-2.6-.1-.5.2-.9.5-1.4.8-.6.4-1.2 1.1-2 .8-.5-.2-.3-.3 0-.6.1-.1.2-.3.4-.4.3-.3.6-.5.9-.8.6-.6 1.1-1.4 1.4-2.2.6-1.7-.8-3.6-2.6-2.9-.9.4-1.3 1.2-2 1.8-.2.2-.1.3-.3.1-.1-.1-.1-.4-.2-.6-.1-.4-.1-.7-.2-1.1-.3-1.5-.9-4.2-2.8-4.4-1.8-.2-2.8 2-3.1 3.5-.2 1.1-.2 2.1.1 3.1.1.3.4 1 .2 1.3-.2.3-1-.2-1.3-.3-1.4-.5-3.1-.4-3.5 1.3-.5 1.9 1 3.3 2.6 3.8.8.2 2.5.7 1.4 1.7-.6.5-1.3.8-2 1.1-1.4.7-2.8 2.4-1.5 3.9 1.4 1.7 3.9 1 5.7.4l.5-.2c.2.1.1 0 .1.2-.1.2-.4.4-.5.5-.4.3-.8.6-1.1 1-.7.6-1.4 1.2-1.7 2.1-.6 1.5 0 3.1 1.4 3.9 1.7.9 3.7.3 5.2-.7.6-.8 1.5-1.5 2.3-2.3.3-.3-.1-.7-.4-.4-1.5 1.4-3.4 3.4-5.7 3.2-2-.1-3.5-2.1-2.3-4 .5-.8 1.2-1.3 1.9-1.9.5-.4 1.3-.9 1.4-1.5.1-.7-.5-.8-1-.6-1.2.4-2.4.9-3.6.7-1.1-.1-2.4-.8-2.1-2 .2-1 1.1-1.6 2-2 .8-.4 2.6-1.1 2.4-2.3-.1-.6-.8-.9-1.4-1.1-.9-.3-1.8-.5-2.5-1.3s-1-2.4 0-3c.7-.4 1.6-.2 2.3.1.5.2 1.2.7 1.7.3.4-.3.3-.9.2-1.3-.2-1.2-.5-2.2-.3-3.4.1-.9.5-1.9 1.1-2.6 2.2-2.4 3.5 2.1 3.8 3.6.1.5.4 2.6 1.4 1.8.2-.2.4-.5.6-.8.4-.5.9-1 1.5-1.2.7-.2 1.5.3 1.7 1 .2.6 0 1.3-.3 1.8-.4.7-.9 1.3-1.5 1.8-.4.4-1 .9-1.2 1.5-.2.5.1 1 .7 1.1.9.2 1.7-.5 2.4-1 .9-.7 2.3-1.6 3.4-.9 1.4.9 0 2.7-.9 3.4-.8.7-2.3 1.1-2.8 2.2-.7 1.4 1.6 1.5 2.3 1.3 1-.2 1.9-.8 2.8-.2 1.1.7 1.2 2.1.8 3.3-.9 2.6-3.7 2.9-6 3.3-1 .2-1.9 0-2.8.7-.3.2.1.7.4.4Z"/><path d="M58.2 36c-.2 0-.3-.1-.4-.2-5-7.8-7.8-16.7-8.3-25.6 0-.1 0-.3.1-.3.1-.1.2-.1.4-.1s.5.2.5.5c.4 8.7 3.2 17.4 8.1 25.1.1.2.1.3 0 .5 0 0-.2.1-.4.1Z"/><path d="M49.8 10.2c.4 9.1 3.4 17.9 8.2 25.5.2.3.7 0 .5-.3-4.8-7.6-7.7-16.3-8.2-25.2 0-.4-.5-.4-.5 0Z"/><path d="M51.1 18.6c-.1 0-.2 0-.3-.1-1.2-.8-2.4-1.4-3.7-1.8-.2-.1-.4-.3-.3-.6 0-.2.2-.4.5-.4h.1c1.4.5 2.7 1.1 3.9 1.9.2.1.3.3.2.6 0 .3-.2.4-.4.4Z"/><path d="M47.202 16.5c1.3.4 2.6 1.1 3.8 1.9.3.2.6-.3.3-.5-1.2-.8-2.5-1.5-3.9-1.9-.4-.1-.6.4-.2.5ZM53.2 25.7c-.2 0-.3-.1-.4-.2-.1-.1-.1-.3-.1-.4.3-2 1-4 2-5.8.1-.2.2-.2.4-.2s.4.1.4.3c.1.1.1.3 0 .5-.9 1.7-1.6 3.6-1.9 5.5 0 .2-.2.3-.4.3Z"/><path d="M54.8 19.4c-1 1.8-1.7 3.7-2 5.7-.1.4.5.5.6.2.3-2 .9-3.8 1.9-5.6.2-.3-.3-.6-.5-.3ZM76.402 64.8c-3.4-.1-7.1-2.2-9.5-5.3-2.3-3-3.2-7.3-2.6-12.1v-.1c0-.2.2-.3.4-.3h.1c3.7 1.3 6.9 3.6 8.9 6.7 2.1 3.1 3.1 6.8 3.1 10.7.1.1-.1.4-.4.4ZM65.202 48c-.3 3.1 0 7.4 2.4 10.7 2 2.7 5.3 4.7 8.3 5-.1-3.4-1-6.7-2.8-9.5-1.8-2.7-4.6-4.9-7.9-6.2Z"/><path d="M64.501 47.3c-.5 4.1 0 8.6 2.6 12 2.1 2.8 5.8 5.1 9.3 5.2.2 0 .3-.1.3-.3 0-3.8-1-7.4-3-10.6-2.1-3.1-5.3-5.4-8.8-6.6-.4-.1-.5.4-.2.6 3.4 1.2 6.6 3.5 8.6 6.6 1.9 3 2.9 6.5 2.8 10.1l.3-.3c-3.4-.1-7-2.4-9-5.1-2.4-3.3-2.8-7.6-2.4-11.5.1-.5-.5-.4-.5-.1Z"/><path d="M76.4 64.8c-.1 0-.3-.1-.3-.2-4.4-5.4-8.1-11.3-11.7-17-.1-.2-.1-.3 0-.5s.3-.3.5-.3.3.1.4.2c3.6 5.7 7.3 11.5 11.6 16.9.1.2.2.4.1.5-.2.3-.4.4-.6.4Z"/><path d="M64.5 47.5c3.7 5.8 7.4 11.7 11.7 17 .2.3.6-.1.4-.4-4.3-5.3-8-11.1-11.6-16.9-.2-.3-.7-.1-.5.3Z"/><path d="M70.8 56.9c-.1 0-.2 0-.3-.1-.7-.5-1.5-.9-2.3-1.2-.4-.2-.9-.4-1.3-.6-.2-.1-.3-.3-.2-.5.1-.2.3-.4.5-.4.1 0 .2 0 .2.1.4.2.8.4 1.3.6.8.4 1.7.7 2.4 1.3.2.1.3.4.2.6-.1.1-.3.2-.5.2Z"/><path d="M67 54.8c1.2.6 2.5 1 3.6 1.8.3.2.6-.3.3-.5-1.1-.8-2.4-1.2-3.6-1.8-.3-.2-.6.4-.3.5Z"/><path d="M71.4 58c-.2 0-.3-.1-.4-.3-.7-1.4-1-3.1-.9-4.9 0-.3.3-.5.5-.5.1 0 .3.1.4.1.1.1.1.2.1.3-.1 1.7.2 3.2.8 4.5.1.2.1.3 0 .5s-.3.3-.5.3Z"/><path d="M70.3 52.8c-.1 1.6.2 3.3.9 4.8.2.3.7 0 .5-.3-.6-1.4-.9-3-.8-4.5 0-.4-.5-.4-.6 0ZM73.2 60.6H73c-1-.4-2.1-.8-3.1-1.2-.2-.1-.4-.3-.3-.6 0-.2.2-.4.4-.4h.2c1 .4 2.1.8 3.1 1.2.2.1.4.3.3.6-.1.2-.2.4-.4.4Z"/><path d="M69.901 59.2c1.1.4 2.1.8 3.1 1.2.3.1.5-.4.2-.6-1-.4-2.1-.8-3.1-1.2-.4-.1-.5.4-.2.6Z"/><path d="M73.602 61.1c-.2 0-.5-.2-.5-.5V58c0-.1 0-.3.1-.3.1-.1.2-.1.4-.1.3 0 .5.2.5.5v2.6c0 .1 0 .3-.1.3s-.2.1-.4.1Z"/><path d="M73.3 58v2.6c0 .4.6.4.6 0-.1-.9 0-1.7 0-2.6 0-.4-.6-.4-.6 0ZM80.601 60.3c-.1 0-.3-.1-.3-.1-2.3-2.5-3.5-6.6-3.1-10.5.5-3.7 2.8-7.5 6.6-10.5 0 0 .1-.1.2-.1h.2c.2 0 .3.1.4.3v.1c1.7 3.5 2.3 7.4 1.6 11-.7 3.7-2.5 7.1-5.2 9.8-.1-.1-.3 0-.4 0Zm3.3-20c-2.4 2-5.2 5.3-5.7 9.4-.5 3.3.5 7.1 2.5 9.4 2.3-2.5 3.9-5.5 4.6-8.7.6-3.3.1-6.9-1.4-10.1Z"/><path d="M83.902 39.3c-3.2 2.6-6 6.2-6.5 10.4-.4 3.5.6 7.7 3 10.3.1.1.3.1.4 0 2.7-2.7 4.5-6 5.2-9.7.7-3.7 0-7.6-1.7-11-.2-.3-.7 0-.5.3 1.6 3.3 2.3 7.1 1.6 10.7-.7 3.5-2.5 6.7-5 9.2h.4c-2.3-2.5-3.3-6.6-2.8-9.9.5-4.1 3.3-7.5 6.3-10 .3-.2-.1-.6-.4-.3Z"/><path d="M80.602 60.3c-.1 0-.3-.1-.4-.1-.1-.1-.1-.2-.1-.3.6-7 2.1-14.1 3.5-20.4 0-.2.2-.4.4-.4s.3.1.4.2c.1.1.1.3.1.4-1.4 6.6-2.8 13.3-3.5 20.2.1.2-.2.4-.4.4Z"/><path d="M83.8 39.4c-1.4 6.7-2.9 13.5-3.5 20.4 0 .4.5.4.6 0 .6-6.8 2-13.5 3.5-20.2 0-.4-.5-.6-.6-.2Z"/><path d="M82 50.7c-.2 0-.4-.2-.4-.4-.1-.9-.5-1.7-.8-2.5-.2-.4-.3-.9-.5-1.3 0-.2 0-.3.1-.4.1-.1.2-.2.4-.2s.4.1.5.3c.1.4.3.9.5 1.3.3.8.7 1.7.8 2.6 0 .2 0 .3-.1.4-.2.2-.3.2-.5.2Z"/><path d="M80.501 46.4c.4 1.3 1.1 2.5 1.3 3.9.1.4.6.2.6-.2-.2-1.4-.9-2.6-1.3-3.9-.2-.3-.7-.1-.6.2Z"/><path d="M81.8 51.9c-.2 0-.3-.1-.4-.2-.1-.1-.1-.3-.1-.4.5-1.5 1.5-2.9 2.8-4.1.1-.1.2-.1.3-.1.2 0 .4.1.5.3.1.2 0 .4-.1.5-1.2 1.2-2.1 2.4-2.5 3.7-.1.2-.3.3-.5.3Z"/><path d="M84.201 47.3c-1.2 1.1-2.2 2.5-2.7 4.1-.1.4.4.5.6.2.5-1.5 1.5-2.8 2.6-3.8.2-.3-.2-.8-.5-.5ZM81.102 55c-.2 0-.3-.1-.4-.3-.4-1-.9-2-1.4-3.1-.1-.2-.1-.3 0-.5s.3-.2.4-.2c.2 0 .3.1.4.3.5 1 .9 2 1.4 3.1.1.2.1.3 0 .5-.1.1-.2.2-.4.2Z"/><path d="M79.501 51.6c.5 1 .9 2 1.4 3.1.1.3.6 0 .5-.3-.4-1-.9-2.1-1.4-3.1-.1-.4-.6-.1-.5.3Z"/><path d="M81.2 55.7c-.2 0-.4-.1-.4-.3-.1-.2-.1-.4.1-.5.3-.4.7-.8 1.1-1.2l.7-.7c.1-.1.2-.2.3-.2.2 0 .4.1.5.3.1.2 0 .4-.1.5l-.7.7c-.4.4-.8.8-1.1 1.2-.2.1-.3.2-.4.2Z"/><path d="M82.702 53.1c-.6.6-1.2 1.2-1.8 1.9-.2.3.2.7.4.4.6-.7 1.2-1.2 1.8-1.9.3-.3-.1-.7-.4-.4ZM80.402 63.6c-.1 0-.3-.1-.4-.1-.1-.1-.1-.2-.1-.3l.2-4.2c0-.3.3-.5.5-.5.1 0 .3.1.4.1.1.1.1.2.1.3l-.2 4.2c0 .4-.2.5-.5.5Z"/><path d="M80.302 59c-.1 1.4-.1 2.8-.2 4.2 0 .4.6.4.6 0 .1-1.4.1-2.8.2-4.2 0-.4-.6-.4-.6 0ZM12.101 66.7c-3.4-.1-7.1-2.2-9.5-5.3-2.3-3-3.2-7.3-2.6-12.1v-.1c0-.2.2-.3.4-.3h.1c3.7 1.3 6.9 3.6 8.9 6.7 2.1 3.1 3.1 6.8 3.1 10.7.1.2-.1.4-.4.4ZM.901 49.9c-.3 3.1 0 7.4 2.4 10.7 2 2.7 5.3 4.7 8.3 5-.1-3.4-1-6.7-2.8-9.5-1.8-2.7-4.6-4.9-7.9-6.2Z"/><path d="M.2 49.3c-.5 4.1 0 8.6 2.6 12 2.1 2.8 5.8 5.1 9.3 5.2.2 0 .3-.1.3-.3 0-3.8-1-7.4-3-10.6C7.3 52.5 4 50.2.5 49c-.4-.1-.5.4-.2.6C3.8 50.7 7 53 9 56.1c1.9 3 2.9 6.5 2.8 10.1l.3-.3c-3.4-.1-7-2.4-9-5.1C.7 57.5.3 53.2.7 49.3c.1-.4-.5-.4-.5 0Z"/><path d="M12.1 66.7c-.1 0-.3-.1-.3-.2-4.5-5.4-8.2-11.3-11.8-17-.1-.2-.1-.3 0-.5s.3-.3.5-.3.3.1.4.2c3.6 5.7 7.3 11.6 11.6 16.9.1.2.2.4.1.5-.2.3-.3.4-.5.4Z"/><path d="M.203 49.4c3.7 5.8 7.4 11.7 11.7 17 .2.3.6-.1.4-.4-4.3-5.3-8-11.1-11.6-16.9-.2-.3-.7 0-.5.3Z"/><path d="M6.503 58.9c-.1 0-.2 0-.3-.1-.7-.5-1.5-.9-2.3-1.2-.4-.2-.9-.4-1.3-.6-.2-.1-.3-.3-.2-.5 0-.3.2-.5.5-.5.1 0 .1 0 .2.1.4.2.8.4 1.3.6.8.3 1.6.7 2.4 1.3.2.1.2.3.2.5-.1.2-.3.4-.5.4Z"/><path d="M2.702 56.8c1.2.6 2.5 1 3.6 1.8.3.2.6-.3.3-.5-1.1-.8-2.4-1.2-3.6-1.8-.3-.2-.6.3-.3.5Z"/><path d="M7.1 59.9c-.2 0-.3-.1-.4-.3-.7-1.4-1-3.1-.9-4.9 0-.3.3-.5.5-.5.1 0 .3.1.4.1.1.1.1.2.1.3-.1 1.8.2 3.4.8 4.6.1.2.1.3 0 .5-.2.1-.3.2-.5.2Z"/><path d="M6 54.7c-.1 1.6.2 3.3.9 4.8.2.3.7 0 .5-.3-.6-1.4-.9-3-.8-4.5 0-.3-.6-.3-.6 0ZM8.802 62.5h-.2c-1-.4-2.1-.8-3.1-1.2-.2-.1-.4-.3-.3-.6 0-.2.2-.4.4-.4h.2c1 .4 2.1.8 3.1 1.2.2.1.4.3.3.6 0 .3-.2.4-.4.4Z"/><path d="M5.6 61.1c1.1.4 2.1.8 3.1 1.2.3.1.5-.4.2-.6-1-.4-2.1-.8-3.1-1.2-.4-.1-.5.5-.2.6Z"/><path d="M9.3 63c-.2 0-.5-.2-.5-.5v-2.6c0-.1 0-.3.1-.3.1-.1.2-.1.4-.1.3 0 .5.2.5.5v2.6c0 .1 0 .3-.1.3-.1.1-.3.1-.4.1Z"/><path d="M9 59.9v2.6c0 .4.6.4.6 0-.1-.9 0-1.7 0-2.6-.1-.3-.7-.3-.6 0ZM16.3 62.2c-.1 0-.3-.1-.3-.1-2.3-2.5-3.5-6.6-3.1-10.5.5-3.7 2.8-7.5 6.6-10.5.1 0 .1-.1.2-.1h.2c.2 0 .3.1.4.3v.1c1.7 3.5 2.3 7.4 1.6 11-.7 3.7-2.5 7.1-5.2 9.8h-.4Zm3.3-20c-2.4 2-5.2 5.3-5.7 9.4-.5 3.3.5 7.1 2.5 9.4 2.3-2.5 3.9-5.5 4.6-8.7.5-3.3.1-6.9-1.4-10.1Z"/><path d="M19.5 41.2c-3.2 2.6-6 6.2-6.5 10.4-.4 3.5.6 7.7 3 10.3.1.1.3.1.4 0 2.7-2.7 4.5-6 5.2-9.7.7-3.7 0-7.6-1.7-11-.2-.3-.7 0-.5.3 1.6 3.3 2.3 7.1 1.6 10.7-.7 3.5-2.5 6.7-5 9.2h.4c-2.3-2.5-3.3-6.6-2.8-9.9.5-4.1 3.3-7.5 6.3-10 .3-.1-.1-.5-.4-.3Z"/><path d="M16.3 62.2c-.1 0-.3-.1-.4-.1-.1-.1-.1-.2-.1-.4.6-7 2.1-13.8 3.5-20.4 0-.2.2-.4.4-.4s.3.1.4.2c.1.1.1.3.1.4-1.4 6.6-2.8 13.4-3.5 20.2 0 .3-.2.5-.4.5Z"/><path d="M19.5 41.3C18 48.1 16.6 54.9 16 61.7c0 .4.5.4.6 0 .6-6.8 2-13.5 3.5-20.2 0-.4-.6-.5-.6-.2Z"/><path d="M17.702 52.7c-.2 0-.4-.2-.4-.4-.1-.9-.5-1.7-.8-2.5-.2-.4-.3-.9-.5-1.3-.1-.2 0-.3.1-.4.1-.1.2-.2.4-.2s.4.1.5.3c.1.4.3.9.5 1.3.3.8.7 1.7.8 2.6 0 .2 0 .3-.1.4-.2.1-.3.2-.5.2Z"/><path d="M16.101 48.4c.4 1.3 1.1 2.5 1.3 3.9.1.4.6.2.6-.2-.2-1.4-.9-2.6-1.3-3.9-.1-.3-.7-.2-.6.2Z"/><path d="M17.5 53.9c-.2 0-.3-.1-.4-.2-.1-.1-.1-.3-.1-.4.5-1.5 1.5-2.9 2.8-4.1.1-.2.2-.2.3-.2.2 0 .4.1.5.3.1.2 0 .4-.1.5-1.2 1.2-2.1 2.4-2.5 3.7-.1.2-.3.4-.5.4Z"/><path d="M19.9 49.2c-1.2 1.1-2.2 2.5-2.7 4.1-.1.4.4.5.6.2.5-1.5 1.5-2.8 2.6-3.8.2-.3-.2-.7-.5-.5ZM16.8 56.9c-.2 0-.3-.1-.4-.3-.4-1-.9-2-1.4-3.1-.1-.2-.1-.3 0-.5s.3-.2.4-.2c.2 0 .3.1.4.3.5 1 .9 2 1.4 3.1.1.2.1.3 0 .5-.1.1-.2.2-.4.2Z"/><path d="M15.203 53.5c.5 1 .9 2 1.4 3.1.1.3.6 0 .5-.3-.4-1-.9-2.1-1.4-3.1-.2-.3-.7 0-.5.3Z"/><path d="M16.802 57.6c-.2 0-.4-.1-.4-.3-.1-.2-.1-.4.1-.5.3-.4.7-.8 1.1-1.2l.7-.7c.1-.1.2-.2.3-.2.2 0 .4.1.5.3.1.2 0 .4-.1.5l-.7.7c-.4.4-.8.8-1.1 1.2-.1.2-.2.2-.4.2Z"/><path d="M18.401 55c-.6.6-1.2 1.2-1.8 1.9-.2.3.2.7.4.4.6-.7 1.2-1.2 1.8-1.9.3-.2-.1-.6-.4-.4ZM16.102 65.6c-.1 0-.3-.1-.4-.1-.1-.1-.1-.2-.1-.3l.2-4.2c0-.3.3-.5.5-.5.1 0 .3.1.4.1.1.1.1.2.1.3l-.2 4.2c0 .3-.3.5-.5.5Z"/><path d="M16 60.9c-.1 1.4-.1 2.8-.2 4.2 0 .4.6.4.6 0 .1-1.4.1-2.8.2-4.2 0-.4-.6-.4-.6 0Z"/></g></g><defs><clipPath id="a"><path fill="#fff" d="M0 0h97v62H0z"/></clipPath></defs></svg>