<svg width="177" height="246" viewBox="0 0 177 246" fill="none" xmlns="http://www.w3.org/2000/svg">
<g opacity="0.25" clip-path="url(#clip0_25700_37965)">
<path d="M22.7426 41.5252C21.3163 43.637 17.4564 47.8182 19.726 50.5398C20.7107 51.7199 22.4511 51.6917 23.849 51.5421C26.1412 51.2993 28.3683 50.6245 30.6067 50.1135C30.3888 49.8961 30.1709 49.6787 29.953 49.4613C29.2682 52.9593 28.2494 57.0079 29.3983 60.5115C29.8624 61.9288 31.1245 64.258 32.8903 63.3969C34.1213 62.7955 35.1514 61.6211 36.0711 60.6386C37.6246 58.9785 39.0594 57.2055 40.4545 55.4127C43.9069 50.9802 47.1272 46.3558 50.1353 41.6099C52.3851 38.0639 54.9319 34.2948 56.2393 30.2661C56.76 28.6653 56.6808 27.7025 54.8838 27.0984C50.6447 25.6698 45.8623 29.1565 42.4891 31.2711C42.7495 31.3756 43.0098 31.4829 43.2673 31.5873C42.9504 29.3795 42.7919 27.1153 42.2146 24.9555C41.8637 23.6399 41.3006 21.9911 39.9112 21.4434C36.4899 20.0967 33.8581 25.3931 32.3781 27.5049L33.1054 27.3158C31.2971 26.2937 29.3813 25.4355 27.4457 24.6845C24.4178 23.51 20.872 22.3666 17.5866 22.9736C15.0086 23.4479 13.056 25.3705 13.4437 28.078C13.888 31.1864 16.033 34.0633 17.8922 36.4885C19.4147 38.4732 21.0531 40.3902 22.819 42.166C23.3 42.6516 24.0499 41.9007 23.5689 41.4179C20.2863 38.1175 16.8084 34.2186 15.0511 29.8708C14.6209 28.8064 14.1851 27.471 14.5728 26.3304C14.9973 25.0854 16.2934 24.3542 17.5102 24.0718C20.4985 23.3745 23.8547 24.4727 26.6336 25.5089C28.6682 26.2655 30.6746 27.1661 32.5677 28.2361C32.8309 28.3858 33.128 28.2841 33.295 28.047C34.2996 26.6099 37.4549 20.5936 39.9734 22.7139C41.0544 23.6258 41.3091 25.571 41.5411 26.8725C41.8383 28.5298 42.0024 30.2096 42.2429 31.8753C42.291 32.2141 42.7608 32.3553 43.0211 32.1915C46.0038 30.3225 49.7901 27.5106 53.517 27.8861C55.5715 28.0921 55.7073 28.558 55.1498 30.1757C53.95 33.6652 51.8078 36.9289 49.8693 40.0401C47.2489 44.2468 44.4417 48.3461 41.4817 52.3213C39.1556 55.4438 36.7587 58.6877 33.878 61.3331C33.462 61.7142 33.0148 62.1405 32.5055 62.4003C31.7697 62.7758 31.4528 62.1716 30.9774 61.4347C28.8776 58.1965 30.2925 53.2106 30.9717 49.7436C31.0509 49.3427 30.7312 48.9983 30.318 49.0915C28.6314 49.4783 26.9618 49.9385 25.2611 50.2603C24.0018 50.4975 21.6927 51.0282 20.6287 49.9723C19.7231 49.0745 20.1533 47.7646 20.6372 46.7849C21.4606 45.1163 22.6124 43.5918 23.6509 42.0559C24.033 41.4885 23.1161 40.9577 22.7341 41.5223L22.7426 41.5252Z" fill="white"/>
<path d="M20.021 30.0541C31.9686 38.1681 43.9218 46.2709 55.8694 54.3849C56.4353 54.7689 56.9673 53.8513 56.4042 53.4702C44.4566 45.3561 32.5034 37.2534 20.5559 29.1394C19.9899 28.7554 19.4579 29.673 20.021 30.0541Z" fill="white"/>
<path d="M36.9793 29.4275C36.3992 31.5534 36.2238 33.6991 36.4813 35.8899C36.5973 36.8809 36.7812 37.8634 36.9906 38.8374C37.1123 39.402 37.2453 39.9667 37.3783 40.5285C37.4378 40.7769 37.4972 41.0254 37.5566 41.2738C37.7434 41.4828 37.7179 41.5025 37.4859 41.3388C37.234 41.5251 36.4784 41.4743 36.136 41.5223C35.5587 41.6042 34.9786 41.686 34.4042 41.782C33.4335 41.9458 32.4629 42.1406 31.5177 42.4173C29.6133 42.9734 27.8758 43.8458 26.2826 45.0203C25.7392 45.4212 26.2684 46.3388 26.8174 45.935C28.6964 44.5516 30.7424 43.6397 33.0176 43.1287C33.9967 42.9085 34.9871 42.7504 35.9776 42.6064C36.5831 42.5189 38.0122 42.5754 38.4622 42.1632C38.8329 41.8244 38.6772 41.4319 38.581 40.9943C38.3292 39.8679 38.0377 38.7499 37.8198 37.6149C37.3048 34.9328 37.2793 32.3608 38.0037 29.7098C38.1848 29.052 37.1604 28.7697 36.9793 29.4275Z" fill="white"/>
<path d="M96.6859 119.461C99.2186 117.025 101.624 114.343 103.245 111.201C104.267 109.219 106.112 105.159 104.459 103.095C101.661 99.5998 97.1047 104.879 95.5427 107.09C95.8483 107.268 96.1539 107.446 96.4595 107.623C98.0046 105.396 99.4422 103.075 100.458 100.554C101.185 98.7471 101.989 96.4236 101.516 94.4558C100.404 89.8116 94.3287 92.2509 92.1865 94.5913L92.9364 95.3395C95.2455 92.4457 93.9834 86.5084 91.2923 84.2441C89.8264 83.0104 87.5682 82.8099 85.9156 83.8065C84.1271 84.885 83.2131 87.0787 82.8282 89.038C82.4321 91.051 82.3189 93.6399 83.6772 95.3395L84.4271 94.5913C82.2849 92.2509 76.2093 89.8116 75.0971 94.4558C74.6415 96.3559 75.3858 98.5749 76.0649 100.331C77.0752 102.94 78.5665 105.334 80.1541 107.623C80.4597 107.446 80.7653 107.268 81.0709 107.09C79.772 105.255 78.0826 103.256 75.9687 102.355C75.0377 101.957 73.9963 101.839 73.0766 102.333C71.707 103.067 71.4806 104.419 71.6504 105.848C72.1032 109.662 74.1888 113.058 76.6111 115.955C79.1353 118.976 82.1859 122.095 85.9241 123.558C89.8547 125.097 93.958 122.016 96.6831 119.459C97.1812 118.99 96.4312 118.242 95.9332 118.71C94.357 120.19 92.6393 121.531 90.6159 122.344C88.6124 123.146 87.0362 123.005 85.1374 122.03C81.4444 120.136 78.2043 116.607 75.8527 113.239C74.7859 111.712 69.9666 102.748 74.6132 103.07C76.8743 103.225 78.9514 105.918 80.1569 107.623C80.5474 108.174 81.4643 107.652 81.0737 107.09C78.9316 104.001 76.8092 100.602 76.1555 96.8415C75.7961 94.772 76.5092 92.6687 78.9995 92.8635C80.754 92.999 82.5141 94.0662 83.68 95.3395C84.1498 95.8533 84.8459 95.1108 84.4299 94.5913C83.2159 93.0696 83.5612 90.3565 84.0139 88.6315C84.5714 86.5027 85.8477 84.2582 88.3096 84.2582C90.7716 84.2582 91.9941 86.4096 92.5685 88.4959C93.0524 90.2492 93.4288 93.0385 92.1865 94.5913C91.7705 95.1108 92.4667 95.8533 92.9364 95.3395C94.1051 94.0634 95.8596 93.0047 97.617 92.8635C100.104 92.6659 100.82 94.7748 100.461 96.8415C99.8072 100.602 97.6849 104.001 95.5427 107.09C95.1522 107.652 96.069 108.177 96.4595 107.623C97.2689 106.48 98.2169 105.393 99.2866 104.487C100.701 103.287 104.109 101.85 103.961 105.198C103.727 110.551 99.5893 115.195 95.9332 118.71C95.4408 119.185 96.1907 119.933 96.6831 119.459L96.6859 119.461Z" fill="white"/>
<path d="M88.035 101.263C87.5115 112.217 87.3898 123.185 87.6699 134.148C87.6869 134.828 88.7481 134.831 88.7311 134.148C88.451 123.185 88.5698 112.217 89.0962 101.263C89.1301 100.582 88.0661 100.582 88.035 101.263Z" fill="white"/>
<path d="M150.227 44.0645C153.678 43.3812 157.154 42.4225 160.222 40.6537C162.155 39.5374 165.908 37.1173 165.638 34.4894C165.18 30.0388 158.487 32.0224 155.975 33.0394C156.135 33.354 156.296 33.6685 156.456 33.983C158.963 32.9426 161.43 31.7658 163.652 30.1928C165.243 29.065 167.179 27.5438 167.848 25.6333C169.432 21.126 163.001 19.9002 159.931 20.7135C160.005 21.0569 160.081 21.4041 160.155 21.7475C163.666 20.5588 165.825 14.8827 164.79 11.5258C164.226 9.6969 162.437 8.30988 160.507 8.2567C158.418 8.19911 156.46 9.55152 155.074 10.9923C153.649 12.4721 152.15 14.5891 152.371 16.7519C152.715 16.6772 153.063 16.6017 153.407 16.527C152.875 13.4022 149.09 8.07194 145.636 11.3792C144.223 12.7319 143.645 15.0004 143.264 16.8442C142.698 19.584 142.654 22.4028 142.747 25.1857C143.101 25.2009 143.454 25.2162 143.807 25.2314C143.71 22.9867 143.374 20.3936 142.085 18.4953C141.518 17.6581 140.707 16.9965 139.666 16.916C138.117 16.7985 137.193 17.8102 136.561 19.1036C134.873 22.5569 134.785 26.5395 135.25 30.2834C135.734 34.1868 136.608 38.4574 138.957 41.7046C141.428 45.1198 146.548 44.7423 150.226 44.0606C150.899 43.9351 150.674 42.901 150.001 43.0266C147.874 43.4208 145.703 43.6223 143.56 43.2147C141.441 42.8083 140.192 41.8391 139.124 39.9952C137.047 36.4089 136.236 31.6917 136.086 27.5893C136.017 25.7287 136.826 15.5872 140.558 18.3649C142.375 19.7155 142.661 23.1021 142.75 25.1872C142.779 25.8611 143.833 25.9163 143.81 25.2329C143.684 21.4787 143.743 17.4738 145.232 13.9573C146.052 12.0223 147.792 10.6375 149.78 12.145C151.182 13.2056 152.083 15.0531 152.373 16.7534C152.489 17.4391 153.477 17.19 153.409 16.5285C153.214 14.5933 154.975 12.497 156.291 11.29C157.914 9.79983 160.205 8.6001 162.275 9.9284C164.344 11.2567 164.206 13.7262 163.557 15.7915C163.013 17.5276 161.817 20.0774 159.931 20.7135C159.299 20.9261 159.482 21.9264 160.155 21.7475C161.83 21.3045 163.879 21.3604 165.433 22.1897C167.634 23.3671 167.09 25.5261 165.667 27.0709C163.078 29.882 159.451 31.5967 155.975 33.0394C155.342 33.3014 155.828 34.2379 156.456 33.983C157.757 33.4577 159.143 33.0547 160.534 32.8694C162.374 32.6233 166.018 33.2526 164.079 35.9902C160.978 40.3669 154.981 42.042 150.001 43.0266C149.33 43.16 149.555 44.194 150.226 44.0606L150.227 44.0645Z" fill="white"/>
<path d="M152.829 24.086C146.451 33.0171 140.404 42.1768 134.697 51.5485C134.342 52.1299 135.232 52.7047 135.588 52.1209C141.295 42.7492 147.341 33.5879 153.721 24.6584C154.118 24.1044 153.224 23.5305 152.829 24.086Z" fill="white"/>
<path d="M100.535 54.1111C101.622 53.154 102.85 53.4674 104.157 53.315C105.391 53.171 106.633 52.9423 107.862 52.7503C109.905 52.4313 111.954 51.8045 113.663 50.6075C116.317 48.7498 118.377 44.8593 116.903 41.6662C116.238 40.2292 114.885 39.0039 113.284 38.7555C111.642 38.5014 110.029 39.4359 108.428 39.6674C107.791 39.7577 105.666 39.8509 105.855 38.7865C105.954 38.2303 107.016 37.5782 107.412 37.2987C108.334 36.6493 109.359 36.1524 110.27 35.4918C112.57 33.8232 115.777 29.5432 112.372 27.2761C110.96 26.336 109.149 26.5251 107.649 27.135C106.75 27.4992 105.957 28.0328 105.182 28.6087C104.146 29.3795 102.904 30.6443 101.577 30.1022C100.725 29.7521 100.982 29.563 101.489 28.9418C101.687 28.699 101.916 28.4732 102.143 28.253C102.663 27.742 103.241 27.2959 103.764 26.7905C104.871 25.7233 105.852 24.3089 106.365 22.8577C107.42 19.8651 104.936 16.2767 101.585 17.6347C99.9749 18.2869 99.2108 19.7635 97.96 20.8081C97.5695 21.1327 97.7903 21.288 97.4337 20.9041C97.2271 20.681 97.1819 20.1813 97.1168 19.8877C96.9668 19.2355 96.8904 18.5664 96.7517 17.9114C96.1858 15.2604 95.0255 10.2999 91.5901 9.97526C88.2339 9.65906 86.4115 13.6398 85.8965 16.3445C85.5343 18.253 85.6022 20.139 86.038 22.0249C86.1455 22.4935 86.7058 23.8318 86.4709 24.3061C86.1681 24.9159 84.6146 24.0096 84.125 23.8431C81.547 22.9679 78.5134 23.0836 77.6588 26.1412C76.7165 29.5178 79.5095 32.1011 82.478 33.0525C83.8845 33.5042 87.0001 34.2806 85.0022 36.0649C83.9835 36.9768 82.6309 37.437 81.4169 38.0214C78.8389 39.2608 76.3147 42.4313 78.6068 45.1416C81.1537 48.1541 85.8087 46.9401 88.9725 45.918C88.9668 45.918 89.8101 45.5849 89.8894 45.6244C90.2346 45.7938 90.0931 45.7063 89.9884 45.9999C89.8724 46.3246 89.3262 46.6888 89.0631 46.9259C88.3896 47.5329 87.6708 48.0891 86.9775 48.6764C85.738 49.721 84.4872 50.8728 83.8335 52.3861C82.6761 55.0597 83.7769 58.0072 86.3238 59.3737C89.5158 61.0874 93.0192 59.9552 95.8292 58.0354C97.5186 56.8807 99.0212 55.4832 100.535 54.1111C101.042 53.6509 100.289 52.9056 99.7853 53.363C97.0149 55.87 93.5399 59.4386 89.4564 59.176C85.7833 58.9417 83.0044 55.438 85.2315 52.0134C86.1229 50.6442 87.4727 49.6334 88.7178 48.6058C89.547 47.9197 91.0553 46.957 91.2845 45.8221C91.542 44.5459 90.2884 44.4076 89.3772 44.673C87.1897 45.311 85.0475 46.2201 82.7186 45.9406C80.7915 45.7063 78.4172 44.5798 78.8304 42.2563C79.1473 40.4607 80.916 39.402 82.4469 38.7131C83.992 38.0158 87.2208 36.7312 86.7567 34.5008C86.5162 33.3461 85.2682 32.8633 84.2721 32.5048C82.6224 31.9119 80.9895 31.5505 79.7161 30.2321C78.3776 28.843 77.8767 25.9294 79.8067 24.7493C81.0377 23.9983 82.7327 24.4698 83.9892 24.9159C84.8296 25.2123 86.1229 26.1581 87.0058 25.5144C87.7274 24.9893 87.5434 23.8741 87.3963 23.126C86.9746 21.0057 86.5049 19.1282 86.8586 16.9487C87.1303 15.2745 87.7415 13.4253 88.9357 12.1717C93.0107 7.90017 95.3311 16.0255 95.8348 18.7189C96.0131 19.6788 96.5876 23.4986 98.3987 21.9967C98.8231 21.6466 99.126 21.017 99.508 20.6076C100.272 19.7917 101.18 18.7979 102.295 18.4986C103.611 18.1457 105.052 18.9814 105.479 20.2575C105.852 21.3727 105.425 22.5613 104.887 23.5438C104.197 24.8086 103.272 25.8052 102.208 26.751C101.387 27.4822 100.3 28.3546 99.9523 29.4472C99.6382 30.4325 100.196 31.2851 101.214 31.4687C102.816 31.7594 104.344 30.5567 105.527 29.6646C107.117 28.4647 109.676 26.7962 111.673 28.0949C114.283 29.7916 111.685 32.9255 110.072 34.2919C108.521 35.6047 105.903 36.3134 104.938 38.2303C103.702 40.6837 107.805 40.8898 109.203 40.599C110.941 40.2377 112.684 39.2354 114.376 40.2913C116.433 41.5787 116.623 44.1083 115.85 46.1891C114.124 50.8361 109.078 51.4573 104.825 52.1292C102.96 52.4228 101.282 52.0417 99.7825 53.3601C99.2703 53.8119 100.023 54.5572 100.532 54.1083L100.535 54.1111Z" fill="white"/>
<path d="M90.8328 18.3771C91.6478 34.7745 97.0302 50.709 105.854 64.5316C106.219 65.1047 107.138 64.5739 106.77 63.998C98.0461 50.3335 92.7005 34.5939 91.894 18.3799C91.8601 17.7024 90.7989 17.6967 90.8328 18.3799V18.3771Z" fill="white"/>
<path d="M86.0619 29.9101C88.5182 30.7119 90.7622 31.8497 92.9158 33.2698C93.4874 33.6481 94.0194 32.7305 93.4506 32.355C91.2263 30.8869 88.8804 29.7181 86.3449 28.8881C85.694 28.6763 85.4167 29.6984 86.0619 29.9101Z" fill="white"/>
<path d="M100.045 35.1728C98.2367 38.3913 97.0255 41.8583 96.4567 45.5059C96.352 46.1722 97.3764 46.4602 97.4811 45.7882C98.0358 42.2281 99.1932 38.8515 100.962 35.7064C101.296 35.1107 100.379 34.5771 100.045 35.1728Z" fill="white"/>
<path d="M117.662 85.5939C116.813 92.9936 117.727 101.212 122.413 107.308C126.327 112.395 132.943 116.517 139.452 116.774C139.74 116.785 139.978 116.523 139.984 116.243C140.06 109.425 138.224 102.779 134.42 97.0873C130.642 91.4352 124.751 87.2398 118.333 85.0829C117.685 84.8655 117.405 85.8875 118.05 86.1049C124.338 88.2195 130.113 92.3894 133.735 97.9823C137.284 103.462 138.99 109.738 138.92 116.246L139.452 115.715C133.223 115.47 126.703 111.381 123.061 106.418C118.701 100.478 117.911 92.7 118.723 85.5967C118.8 84.922 117.738 84.9276 117.662 85.5967V85.5939Z" fill="white"/>
<path d="M117.737 85.8625C124.418 96.3876 131.159 106.963 139.079 116.619C139.512 117.147 140.259 116.393 139.829 115.871C131.968 106.286 125.287 95.7749 118.653 85.3289C118.288 84.7558 117.372 85.2865 117.737 85.8625Z" fill="white"/>
<path d="M122.34 99.1682C124.558 100.292 126.978 101.032 128.99 102.514C129.539 102.917 130.071 102 129.525 101.599C127.507 100.114 125.093 99.3799 122.875 98.2535C122.266 97.9457 121.728 98.8576 122.34 99.1682Z" fill="white"/>
<path d="M128.337 95.4898C128.224 98.4457 128.674 101.548 129.939 104.242C130.227 104.857 131.144 104.321 130.856 103.708C129.673 101.184 129.294 98.2509 129.401 95.4898C129.427 94.8094 128.365 94.8094 128.34 95.4898H128.337Z" fill="white"/>
<path d="M127.609 107.028C129.527 107.714 131.426 108.442 133.311 109.216C133.942 109.476 134.216 108.451 133.594 108.194C131.709 107.42 129.81 106.692 127.892 106.006C127.246 105.774 126.969 106.799 127.609 107.028Z" fill="white"/>
<path d="M133.71 104.902C133.738 106.472 133.636 108.039 133.752 109.606C133.803 110.281 134.864 110.286 134.813 109.606C134.697 108.039 134.802 106.472 134.771 104.902C134.757 104.222 133.696 104.219 133.71 104.902Z" fill="white"/>
<path d="M153.045 71.029C147.235 75.7212 142.127 82.2288 141.191 89.8572C140.41 96.2067 142.241 103.796 146.706 108.51C146.904 108.719 147.258 108.708 147.456 108.51C152.298 103.694 155.654 97.672 156.933 90.9498C158.204 84.2728 156.944 77.1639 153.877 71.1391C153.568 70.5321 152.652 71.0657 152.96 71.6727C155.962 77.5704 157.162 84.5805 155.824 91.0966C154.511 97.4913 151.324 103.163 146.703 107.762H147.453C143.189 103.259 141.434 95.8538 142.26 89.7923C143.256 82.4659 148.206 76.2915 153.795 71.7771C154.327 71.348 153.571 70.6026 153.045 71.029Z" fill="white"/>
<path d="M152.908 71.2633C150.288 83.4485 147.676 95.707 146.55 108.138C146.487 108.815 147.548 108.813 147.611 108.138C148.728 95.803 151.332 83.6376 153.933 71.5457C154.074 70.8822 153.052 70.597 152.908 71.2633Z" fill="white"/>
<path d="M146.851 83.9906C147.646 86.3424 148.851 88.5586 149.25 91.0261C149.358 91.6981 150.382 91.4129 150.275 90.7438C149.876 88.2763 148.67 86.0629 147.875 83.7083C147.657 83.0674 146.633 83.3412 146.851 83.9906Z" fill="white"/>
<path d="M153.715 85.5544C151.559 87.5843 149.703 90.1083 148.712 92.9117C148.486 93.5554 149.51 93.8321 149.737 93.1941C150.665 90.5628 152.448 88.2026 154.465 86.3025C154.963 85.8339 154.211 85.0857 153.715 85.5544Z" fill="white"/>
<path d="M145.093 93.2846C145.979 95.1141 146.825 96.9633 147.628 98.8295C147.897 99.4534 148.811 98.9142 148.545 98.2959C147.741 96.4269 146.898 94.5805 146.01 92.751C145.713 92.1384 144.798 92.6748 145.093 93.2846Z" fill="white"/>
<path d="M150.944 96.0233C149.865 97.1668 148.685 98.2085 147.672 99.4084C147.234 99.9279 147.981 100.679 148.422 100.157C149.435 98.9539 150.615 97.9121 151.694 96.7715C152.16 96.2746 151.413 95.5265 150.944 96.0233Z" fill="white"/>
<path d="M146.542 106.633C146.446 109.168 146.347 111.703 146.25 114.236C146.225 114.916 147.286 114.916 147.312 114.236C147.408 111.701 147.507 109.165 147.603 106.633C147.629 105.952 146.567 105.952 146.542 106.633Z" fill="white"/>
<path d="M138.752 115.826C140.268 117.915 141.782 120.004 143.299 122.093C143.695 122.641 144.618 122.113 144.216 121.56C142.699 119.47 141.185 117.381 139.668 115.292C139.272 114.744 138.35 115.272 138.752 115.826Z" fill="white"/>
<path d="M0.283124 89.1081C-0.565826 96.5078 0.34821 104.726 5.03441 110.822C8.94807 115.909 15.5642 120.031 22.0728 120.288C22.3615 120.299 22.5992 120.037 22.6049 119.757C22.6813 112.939 20.8447 106.293 17.0414 100.602C13.2636 94.9494 7.37186 90.754 0.953794 88.597C0.305762 88.3797 0.0256089 89.4017 0.670811 89.6191C6.9587 91.7337 12.7344 95.9036 16.3566 101.496C19.9052 106.976 21.6116 113.252 21.5408 119.76L22.0728 119.229C15.8444 118.984 9.32444 114.896 5.68245 109.932C1.32167 103.992 0.532149 96.2142 1.34431 89.1109C1.42072 88.4361 0.35953 88.4418 0.283124 89.1109V89.1081Z" fill="white"/>
<path d="M0.353817 89.3767C7.03505 99.9017 13.7757 110.478 21.6964 120.133C22.1294 120.661 22.8765 119.907 22.4463 119.385C14.585 109.8 7.90381 99.2891 1.27068 88.8431C0.905634 88.2699 -0.0112316 88.8007 0.353817 89.3767Z" fill="white"/>
<path d="M4.96076 102.682C7.17935 103.806 9.59885 104.546 11.6109 106.028C12.1599 106.432 12.6919 105.514 12.1457 105.113C10.128 103.628 7.71419 102.894 5.4956 101.768C4.88718 101.46 4.34951 102.372 4.96076 102.682Z" fill="white"/>
<path d="M10.9582 99.0064C10.845 101.962 11.295 105.065 12.5599 107.758C12.8486 108.374 13.7654 107.838 13.4768 107.225C12.2939 104.701 11.9147 101.768 12.0222 99.0064C12.0477 98.326 10.9865 98.326 10.9611 99.0064H10.9582Z" fill="white"/>
<path d="M10.2297 110.542C12.1483 111.228 14.0472 111.957 15.9318 112.73C16.5629 112.99 16.8374 111.965 16.2148 111.708C14.3301 110.935 12.4313 110.206 10.5127 109.52C9.8675 109.289 9.59018 110.313 10.2297 110.542Z" fill="white"/>
<path d="M16.3309 108.417C16.3592 109.986 16.2574 111.553 16.3734 113.12C16.4243 113.795 17.4855 113.801 17.4346 113.12C17.3185 111.553 17.4233 109.986 17.3921 108.417C17.378 107.736 16.3168 107.733 16.3309 108.417Z" fill="white"/>
<path d="M35.6621 74.5431C29.8524 79.2354 24.7446 85.7429 23.8079 93.3714C23.0269 99.7209 24.8578 107.31 29.3232 112.025C29.5213 112.233 29.8751 112.222 30.0731 112.025C34.915 107.208 38.2712 101.186 39.5503 94.464C40.8209 87.787 39.5616 80.678 36.494 74.6532C36.1856 74.0462 35.2687 74.5798 35.5772 75.1868C38.5796 81.0846 39.7795 88.0947 38.441 94.6108C37.1279 101.005 33.9415 106.677 29.3204 111.276H30.0703C25.8058 106.773 24.0513 99.3679 24.8776 93.3064C25.8737 85.9801 30.8231 79.8056 36.412 75.2913C36.944 74.8621 36.1884 74.1168 35.6621 74.5431Z" fill="white"/>
<path d="M35.5253 74.7775C32.9049 86.9626 30.293 99.2212 29.1667 111.652C29.1044 112.33 30.1656 112.327 30.2279 111.652C31.3457 99.3172 33.9491 87.1518 36.5497 75.0598C36.6912 74.3964 35.6697 74.1112 35.5253 74.7775Z" fill="white"/>
<path d="M29.4716 87.5077C30.2668 89.8594 31.4723 92.0757 31.8713 94.5432C31.9789 95.2151 33.0033 94.93 32.8957 94.2609C32.4967 91.7934 31.2912 89.5799 30.496 87.2254C30.2781 86.5845 29.2537 86.8583 29.4716 87.5077Z" fill="white"/>
<path d="M36.3364 89.0685C34.18 91.0984 32.3237 93.6224 31.3332 96.4259C31.1068 97.0696 32.1312 97.3463 32.3576 96.7082C33.2858 94.077 35.0686 91.7167 37.0863 89.8167C37.5843 89.348 36.8316 88.5999 36.3364 89.0685Z" fill="white"/>
<path d="M27.7139 96.7988C28.5996 98.6282 29.4457 100.477 30.2494 102.344C30.5182 102.968 31.4323 102.428 31.1663 101.81C30.3626 99.941 29.5193 98.0946 28.6307 96.2652C28.3336 95.6525 27.4196 96.1889 27.7139 96.7988Z" fill="white"/>
<path d="M33.5648 99.5375C32.4866 100.681 31.3065 101.723 30.2935 102.923C29.8548 103.439 30.6019 104.193 31.0434 103.671C32.0565 102.468 33.2365 101.426 34.3147 100.286C34.7816 99.7888 34.0345 99.0406 33.5648 99.5375Z" fill="white"/>
<path d="M29.163 110.147C29.0668 112.682 28.9678 115.218 28.8715 117.75C28.8461 118.43 29.9073 118.43 29.9327 117.75C30.0289 115.215 30.128 112.679 30.2242 110.147C30.2497 109.467 29.1885 109.467 29.163 110.147Z" fill="white"/>
<path d="M21.3688 119.34C22.8855 121.429 24.3995 123.518 25.9163 125.607C26.3125 126.155 27.235 125.627 26.8332 125.074C25.3164 122.984 23.8024 120.895 22.2856 118.806C21.8894 118.258 20.9669 118.786 21.3688 119.34Z" fill="white"/>
<path d="M71.9604 185.692C70.0248 184.967 68.9636 182.711 68.0637 180.986C67.4468 179.803 66.8469 178.612 66.2781 177.403C66.0545 176.926 65.8338 176.449 65.6187 175.966C65.381 175.43 64.6226 174.306 64.682 173.699C64.8065 172.389 67.5656 172.61 68.5872 172.567C70.1153 172.505 71.6519 172.581 73.1659 172.802C75.5741 173.152 77.9709 173.824 80.2263 174.727C81.2818 175.15 83.0958 175.721 83.9079 176.562C84.8135 177.499 84.1937 177.793 83.591 178.423C82.5609 179.498 81.4884 180.534 80.3678 181.514C78.3756 183.259 74.8977 186.472 71.9575 185.687C71.2982 185.512 71.0152 186.531 71.6745 186.709C74.4874 187.46 77.4644 185.204 79.5245 183.586C80.897 182.511 82.1902 181.331 83.4268 180.102C84.0862 179.447 85.4983 178.397 85.6313 177.418C85.8746 175.594 82.4421 174.521 81.2054 173.996C78.7322 172.94 76.1061 172.178 73.446 171.779C70.9218 171.401 68.3552 171.396 65.8281 171.768C65.1405 171.87 64.1132 171.904 63.6859 172.576C63.2162 173.31 63.751 174.241 64.034 174.936C65.0584 177.443 66.2498 179.905 67.5487 182.282C68.5193 184.055 69.6965 185.969 71.6745 186.712C72.3141 186.952 72.5914 185.93 71.9575 185.69L71.9604 185.692Z" fill="white"/>
<path d="M54.4142 148.863C53.4436 147.285 52.1758 145.921 51.2052 144.343C51.075 144.134 50.8401 144.049 50.6053 144.1C45.8681 145.122 41.2781 147.468 37.2965 150.173C35.8647 151.147 31.4529 153.784 32.4179 156.065C32.766 156.887 33.5074 157.624 34.0875 158.281C35.1176 159.453 36.2184 160.565 37.3305 161.658C40.1292 164.405 43.0609 167.034 46.1313 169.473C48.1886 171.105 50.6562 173.355 53.2879 173.984C55.3848 174.487 57.7902 172.48 59.3551 171.367C62.516 169.12 65.4732 166.571 68.3144 163.939C70.598 161.825 72.9779 159.642 74.84 157.135C75.3861 156.401 75.8247 155.741 75.5163 154.809C75.0041 153.262 73.3882 152.051 72.1544 151.108C67.8814 147.847 62.5783 145.235 57.3063 144.1C57.0714 144.049 56.8365 144.134 56.7064 144.343C55.7357 145.921 54.468 147.285 53.4973 148.863C53.138 149.445 54.0576 149.978 54.4142 149.397C55.3848 147.819 56.6526 146.455 57.6232 144.877L57.0233 145.119C61.5029 146.082 65.8269 148.157 69.6529 150.642C70.9885 151.509 75.4908 154.143 74.2768 156.093C72.9241 158.267 70.7876 160.119 68.9567 161.875C66.3872 164.34 63.7074 166.706 60.8974 168.897C59.6494 169.871 58.3703 170.817 57.0261 171.655C56.2168 172.161 55.2575 172.818 54.2925 172.976C52.4531 173.279 50.0902 171.139 48.7432 170.15C43.5816 166.364 38.4624 161.892 34.3507 156.971C33.8866 156.418 33.1989 155.766 33.4225 155.148C33.9687 153.64 36.0344 152.35 37.2626 151.48C41.3036 148.623 46.0209 146.17 50.8882 145.119L50.2883 144.877C51.2589 146.455 52.5267 147.819 53.4973 149.397C53.8539 149.975 54.7736 149.445 54.4142 148.863Z" fill="white"/>
<path d="M53.5469 173.499C53.8582 181.068 55.474 188.561 59.0283 195.297C59.3452 195.901 60.2621 195.365 59.9451 194.763C56.4814 188.194 54.9137 180.879 54.6109 173.499C54.5826 172.821 53.5214 172.815 53.5497 173.499H53.5469Z" fill="white"/>
<path d="M41.2666 155.752C45.1095 161.929 49.3655 167.83 53.4971 173.815C53.8254 174.289 54.6375 174.013 54.4677 173.408C52.3453 165.899 51.0125 158.18 49.108 150.613C48.9411 149.953 47.9167 150.232 48.0836 150.896C49.9881 158.462 51.321 166.181 53.4433 173.691C53.7659 173.555 54.0885 173.42 54.414 173.284C50.2824 167.299 46.0235 161.398 42.1834 155.221C41.824 154.642 40.9043 155.173 41.2666 155.755V155.752Z" fill="white"/>
<path d="M57.8457 153.134C56.2016 159.848 54.7414 166.618 53.4453 173.408C53.3322 174.004 54.0651 174.315 54.416 173.815C58.6522 167.796 62.5518 161.551 66.7427 155.498C67.1333 154.936 66.2136 154.405 65.8259 154.964C61.6349 161.014 57.7354 167.259 53.4991 173.281C53.8217 173.417 54.1443 173.552 54.4697 173.688C55.7658 166.898 57.226 160.128 58.8701 153.414C59.0314 152.753 58.0099 152.471 57.8457 153.132V153.134Z" fill="white"/>
<path d="M68.9397 176.523C70.0263 179.775 71.328 183.152 71.7893 186.571C71.8572 187.07 72.5307 187.022 72.7599 186.698C74.7125 183.914 76.9651 181.41 79.1921 178.849C79.6364 178.335 78.8893 177.584 78.4422 178.101C76.1557 180.732 73.8466 183.307 71.8431 186.164C72.1657 186.206 72.4883 186.249 72.8137 186.291C72.3524 182.875 71.0507 179.496 69.964 176.243C69.749 175.599 68.7246 175.876 68.9397 176.526V176.523Z" fill="white"/>
<path d="M74.3248 175.498C72.624 181.876 71.1752 188.313 69.9753 194.803C69.8508 195.469 70.8752 195.755 70.9997 195.086C72.1996 188.595 73.6513 182.158 75.3492 175.78C75.5246 175.122 74.5002 174.84 74.3248 175.498Z" fill="white"/>
<path d="M119.968 221.821C119.008 220.737 119.322 219.511 119.169 218.207C119.025 216.976 118.796 215.737 118.604 214.511C118.284 212.473 117.656 210.429 116.456 208.724C114.594 206.075 110.694 204.02 107.494 205.491C106.053 206.154 104.825 207.504 104.576 209.102C104.321 210.739 105.258 212.349 105.49 213.947C105.581 214.582 105.674 216.702 104.607 216.513C104.05 216.414 103.396 215.355 103.116 214.96C102.465 214.04 101.967 213.018 101.305 212.109C99.6323 209.813 95.3423 206.615 93.0699 210.011C92.1276 211.42 92.3172 213.227 92.9284 214.723C93.2935 215.621 93.8283 216.411 94.4056 217.185C95.1782 218.218 96.4459 219.458 95.9026 220.782C95.5517 221.632 95.3621 221.375 94.7395 220.869C94.4962 220.672 94.2698 220.443 94.0491 220.217C93.5397 219.698 93.0897 219.122 92.5832 218.599C91.5135 217.495 90.0958 216.516 88.6412 216.005C85.6416 214.952 82.0449 217.431 83.4061 220.773C84.0597 222.38 85.5397 223.142 86.5868 224.39C86.9122 224.779 87.0679 224.559 86.683 224.915C86.4595 225.121 85.9586 225.166 85.6643 225.231C85.0106 225.381 84.3399 225.457 83.6834 225.595C81.0262 226.16 76.0541 227.318 75.7287 230.745C75.4118 234.093 79.4018 235.912 82.1128 236.425C84.0258 236.787 85.9161 236.719 87.8065 236.284C88.2762 236.177 89.6175 235.618 90.093 235.852C90.7042 236.154 89.7958 237.704 89.6289 238.193C88.7516 240.765 88.8676 243.791 91.9323 244.644C95.3168 245.584 97.9061 242.797 98.8598 239.836C99.3126 238.433 100.091 235.324 101.879 237.317C102.793 238.334 103.255 239.683 103.84 240.895C105.083 243.467 108.26 245.985 110.977 243.698C113.997 241.157 112.78 236.513 111.755 233.356C111.755 233.362 111.421 232.521 111.461 232.442C111.631 232.097 111.543 232.238 111.837 232.343C112.163 232.459 112.528 233.004 112.766 233.266C113.374 233.938 113.931 234.655 114.52 235.347C115.567 236.583 116.722 237.831 118.238 238.483C120.918 239.638 123.873 238.54 125.242 235.999C126.96 232.814 125.825 229.319 123.901 226.516C122.744 224.83 121.343 223.331 119.968 221.821C119.506 221.315 118.759 222.066 119.218 222.569C121.73 225.333 125.307 228.8 125.044 232.874C124.809 236.538 121.298 239.311 117.865 237.089C116.492 236.199 115.479 234.853 114.449 233.611C113.762 232.783 112.797 231.279 111.659 231.05C110.38 230.793 110.241 232.044 110.507 232.953C111.147 235.135 112.058 237.272 111.778 239.596C111.543 241.518 110.414 243.887 108.085 243.475C106.285 243.159 105.224 241.394 104.534 239.867C103.835 238.325 102.547 235.104 100.311 235.567C99.1541 235.807 98.6702 237.052 98.3108 238.046C97.7165 239.692 97.3543 241.321 96.0328 242.591C94.6405 243.927 91.7201 244.426 90.5372 242.501C89.7845 241.273 90.2571 239.582 90.7042 238.328C91.0013 237.49 91.9493 236.199 91.3041 235.319C90.7778 234.599 89.66 234.782 88.9101 234.929C86.7849 235.35 84.903 235.818 82.7184 235.465C81.0403 235.194 79.1868 234.585 77.9303 233.393C73.6488 229.328 81.7931 227.013 84.4927 226.51C85.4549 226.332 89.2836 225.759 87.7782 223.952C87.4273 223.529 86.7962 223.227 86.3859 222.846C85.568 222.083 84.5719 221.177 84.272 220.065C83.9183 218.752 84.7559 217.315 86.035 216.888C87.1528 216.516 88.3441 216.942 89.3289 217.479C90.5967 218.167 91.5956 219.091 92.5436 220.152C93.2765 220.971 94.1509 222.055 95.2461 222.402C96.2337 222.716 97.0883 222.159 97.2722 221.143C97.5637 219.545 96.3582 218.021 95.464 216.84C94.2613 215.254 92.5889 212.702 93.8906 210.708C95.5913 208.105 98.7324 210.697 100.102 212.306C101.418 213.853 102.128 216.465 104.05 217.428C106.509 218.661 106.715 214.568 106.424 213.173C106.062 211.44 105.057 209.7 106.115 208.012C107.406 205.96 109.941 205.771 112.027 206.541C116.685 208.263 117.307 213.297 117.981 217.541C118.275 219.401 117.893 221.075 119.215 222.572C119.668 223.083 120.415 222.332 119.965 221.823L119.968 221.821Z" fill="white"/>
<path d="M84.1493 231.502C100.585 230.689 116.557 225.319 130.411 216.516C130.986 216.152 130.454 215.234 129.877 215.601C116.18 224.305 100.404 229.638 84.1521 230.443C83.473 230.477 83.4673 231.536 84.1521 231.502H84.1493Z" fill="white"/>
<path d="M95.7094 236.259C96.5131 233.808 97.6535 231.569 99.0769 229.421C99.4561 228.851 98.5364 228.32 98.1601 228.887C96.6885 231.106 95.517 233.447 94.685 235.977C94.4728 236.626 95.4972 236.903 95.7094 236.259Z" fill="white"/>
<path d="M100.983 222.309C104.209 224.116 107.685 225.322 111.341 225.889C112.009 225.994 112.297 224.972 111.624 224.867C108.055 224.314 104.671 223.159 101.518 221.395C100.921 221.061 100.386 221.976 100.983 222.309Z" fill="white"/>
<path d="M21.8075 231.496C22.7442 230.573 23.562 229.573 24.3035 228.489C23.9752 228.399 23.6441 228.311 23.3158 228.221C22.682 234.695 25.5373 240.129 28.8652 245.465C29.0802 245.81 29.567 245.804 29.782 245.465C32.6345 240.982 34.6861 235.957 34.1654 230.561C33.8994 230.714 33.6334 230.866 33.3674 231.019C38.996 235.073 45.7366 237.131 52.2594 239.285C52.6244 239.407 53.0517 239.009 52.9131 238.633C50.4285 231.908 46.5799 225.734 41.3475 220.79C41.223 221.092 41.0985 221.392 40.9712 221.694C46.0479 221.236 50.4511 218.721 54.6987 216.087C55.0439 215.872 55.0383 215.386 54.6987 215.172C49.2032 211.696 43.0596 209.647 36.5991 211.428L37.1141 212.312C40.1958 208.506 41.3815 203.899 41.6277 199.082C41.6475 198.673 41.1636 198.433 40.8297 198.625C36.8849 200.875 32.9118 203.334 30.348 207.188C28.1266 210.53 27.4163 214.167 26.5192 217.987C26.4287 218.368 26.7711 218.757 27.1729 218.639C26.955 218.421 26.7371 218.204 26.5192 217.987C26.8673 218.035 27.2154 218.08 27.5606 218.128C27.5889 217.702 27.0965 217.501 26.7626 217.67C23.2564 219.443 19.8804 220.993 17.1525 223.935C14.0057 227.329 12.5512 231.767 11.2891 236.123C11.1787 236.507 11.5551 236.888 11.9427 236.775C15.5734 235.697 19.0173 234.09 21.8075 231.49C22.3084 231.024 21.5557 230.276 21.0576 230.742C18.4004 233.218 15.115 234.729 11.6598 235.753C11.8777 235.971 12.0956 236.188 12.3135 236.406C13.5642 232.08 14.9905 227.659 18.2108 224.362C20.8454 221.663 24.0007 220.254 27.2974 218.588C27.0314 218.436 26.7654 218.283 26.4994 218.131C26.457 218.774 27.337 218.783 27.5408 218.272C27.6936 217.891 27.2465 217.515 26.8871 217.62C27.105 217.837 27.3229 218.054 27.5408 218.272C28.3841 214.689 29.0095 211.281 31.0187 208.1C33.4806 204.204 37.4424 201.776 41.3617 199.54C41.0957 199.387 40.8297 199.235 40.5637 199.082C40.3316 203.591 39.2506 207.995 36.3586 211.564C36.0444 211.953 36.3246 212.6 36.8736 212.447C43.0709 210.739 48.8975 212.761 54.1554 216.084V215.169C50.0889 217.69 45.83 220.192 40.9627 220.632C40.5326 220.672 40.2298 221.197 40.5863 221.536C45.6829 226.349 49.4578 232.354 51.8802 238.91C52.0981 238.692 52.316 238.475 52.5339 238.258C46.0903 236.129 39.4544 234.102 33.8938 230.098C33.5797 229.873 33.059 230.172 33.0958 230.556C33.6023 235.784 31.6214 240.581 28.8595 244.926H29.7764C26.5447 239.743 23.7545 234.511 24.3714 228.215C24.428 227.648 23.6498 227.558 23.3838 227.947C22.6933 228.961 21.9264 229.878 21.0548 230.739C20.5681 231.219 21.318 231.967 21.8047 231.487L21.8075 231.496Z" fill="white"/>
<path d="M33.9655 222.69C27.4965 216.685 20.0766 211.883 11.9663 208.393C11.3466 208.125 10.8033 209.037 11.4315 209.308C19.4626 212.763 26.8116 217.495 33.2156 223.438C33.7164 223.901 34.4663 223.156 33.9655 222.69Z" fill="white"/>
<path d="M102.784 156.451C103.103 164.204 107.079 173.394 114.525 176.821C117.977 178.411 121.517 178.063 124.29 175.404C127.066 172.742 128.377 168.851 128.894 165.133C129.571 160.285 128.827 155.401 126.88 150.921C126.772 150.675 126.367 150.579 126.152 150.732C123.068 152.945 118.888 153.894 115.246 154.729C111.542 155.579 107.269 156.57 103.451 155.943C102.784 155.833 102.495 156.852 103.168 156.965C107.068 157.606 111.366 156.683 115.164 155.833C118.996 154.978 123.436 153.978 126.684 151.646L125.957 151.457C127.929 155.997 128.589 161.084 127.686 165.963C126.928 170.051 124.811 175.407 120.306 176.609C115.342 177.936 110.591 173.25 108.101 169.568C105.475 165.681 104.032 161.13 103.839 156.454C103.811 155.777 102.75 155.771 102.778 156.454L102.784 156.451Z" fill="white"/>
<path d="M112.678 144.453C109.483 145.224 106.368 146.624 103.94 148.883C102.301 150.407 100.759 152.573 100.968 154.922C101.22 157.765 105.635 157.194 107.585 157.036C111.996 156.678 116.422 155.718 120.627 154.357C122.368 153.795 124.136 153.163 125.732 152.256C126.59 151.771 127.781 151.062 128.019 150.015C128.508 147.858 125.633 145.918 124.029 145.193C120.497 143.598 116.399 143.646 112.678 144.453C112.01 144.597 112.293 145.619 112.961 145.475C116.17 144.778 119.62 144.699 122.747 145.814C123.884 146.22 125.019 146.805 125.874 147.671C126.318 148.12 127.164 149.109 126.969 149.817C126.754 150.608 125.514 151.175 124.869 151.52C123.508 152.242 122.048 152.776 120.588 153.256C117.011 154.433 113.287 155.28 109.551 155.769C108.043 155.966 106.512 156.107 104.99 156.071C104.259 156.054 102.825 156.107 102.253 155.52C101.783 155.037 102.013 153.964 102.163 153.4C102.494 152.149 103.292 151.048 104.18 150.128C106.518 147.7 109.718 146.257 112.956 145.475C113.618 145.314 113.338 144.295 112.673 144.453H112.678Z" fill="white"/>
<path d="M132.75 175.74C132.218 178.679 132.244 181.824 133.305 184.65C134.066 186.672 135.56 188.868 137.751 189.518C143.011 191.079 147.712 185.156 149.537 181.051C149.755 180.559 149.311 180.096 148.81 180.325C146.396 181.437 143.082 180.565 140.691 179.817C138.283 179.063 135.111 177.875 133.718 175.61C133.362 175.031 132.442 175.562 132.801 176.144C134.358 178.671 137.708 179.989 140.411 180.836C143.125 181.686 146.634 182.488 149.347 181.237C149.104 180.994 148.864 180.754 148.62 180.511C146.987 184.182 143.368 189.077 138.772 188.623C136.412 188.391 134.89 186.017 134.191 183.976C133.319 181.432 133.297 178.634 133.772 176.014C133.894 175.348 132.869 175.063 132.748 175.732L132.75 175.74Z" fill="white"/>
<path d="M113.136 138.493C111.76 141.051 111.457 143.911 112.287 146.692C112.482 147.344 113.506 147.064 113.311 146.409C112.561 143.894 112.807 141.342 114.052 139.026C114.375 138.425 113.458 137.891 113.136 138.493Z" fill="white"/>
<path d="M144.643 166.999C140.072 165.726 135.202 168.278 133.117 172.437C132.525 173.617 132.09 174.78 132.732 176.017C133.304 177.118 134.373 177.931 135.395 178.589C138.23 180.407 141.745 181.511 145.093 181.79C147.577 181.996 150.379 181.669 150.998 178.871C152.074 174.009 149.473 168.603 144.643 166.997C143.995 166.782 143.714 167.804 144.36 168.019C148.194 169.292 150.427 173.346 150.158 177.276C150.07 178.566 149.909 179.876 148.61 180.418C147.639 180.822 146.496 180.819 145.466 180.757C142.769 180.602 140.022 179.783 137.605 178.603C136.128 177.883 133.241 176.452 133.468 174.433C133.7 172.363 135.799 170.238 137.441 169.168C139.509 167.818 141.971 167.352 144.36 168.019C145.019 168.202 145.299 167.18 144.643 166.997V166.999Z" fill="white"/>
<path d="M144.345 170.393C144.911 168.631 145.848 167.011 146.414 165.249C146.623 164.6 145.599 164.32 145.39 164.967C144.824 166.728 143.887 168.349 143.321 170.111C143.112 170.76 144.136 171.039 144.345 170.393Z" fill="white"/>
</g>
<defs>
<clipPath id="clip0_25700_37965">
<rect width="177" height="246" fill="white"/>
</clipPath>
</defs>
</svg>
